<?xml version="1.0" encoding="UTF-8"?>
<svg version="1.1" xmlns="http://www.w3.org/2000/svg" width="700" height="700">
<path d="M0 0 C0.99629929 -0.00705963 1.99259857 -0.01411926 3.01908875 -0.02139282 C24.22757307 -0.13745572 45.20685745 -0.24881157 66.19140625 3.203125 C67.41311523 3.40180176 68.63482422 3.60047852 69.89355469 3.80517578 C148.92828639 17.07037151 229.53521962 57.44734601 280.00390625 121.4609375 C281.94533131 123.89465249 283.96080936 126.23925012 286.01586914 128.5769043 C338.13162823 188.36580578 364.38630721 270.72340887 364.44140625 349.203125 C364.44241837 350.51271179 364.44241837 350.51271179 364.44345093 351.84875488 C364.34688105 431.2093412 337.1761257 510.06129348 286.19140625 571.203125 C285.38703125 572.18023438 284.58265625 573.15734375 283.75390625 574.1640625 C272.93920134 587.19968001 261.45450777 600.09675295 248.5859375 611.14453125 C246.77787007 612.69893832 244.98639317 614.27267255 243.203125 615.85546875 C233.99458629 623.97656696 224.26262155 631.1906257 214.19140625 638.203125 C213.5562207 638.64897949 212.92103516 639.09483398 212.26660156 639.55419922 C154.79256859 679.71807879 85.12865714 700.40690791 15.25390625 700.453125 C14.33133026 700.45379974 13.40875427 700.45447449 12.45822144 700.45516968 C-38.7704605 700.39605052 -89.57419455 689.52808314 -135.80859375 667.203125 C-136.50597656 666.86958008 -137.20335937 666.53603516 -137.921875 666.19238281 C-142.59588364 663.94698191 -147.21367588 661.60582815 -151.80859375 659.203125 C-152.83919922 658.66896973 -152.83919922 658.66896973 -153.890625 658.12402344 C-190.45400651 639.0235001 -227.15367273 610.42047724 -252.75390625 577.81640625 C-254.94958178 575.02380753 -257.24803452 572.3387381 -259.55859375 569.640625 C-300.32219704 520.52330948 -325.82258227 458.34156365 -333.80859375 395.203125 C-333.93939835 394.1690451 -333.93939835 394.1690451 -334.07284546 393.11407471 C-335.80798065 378.97004184 -336.17032322 364.94271418 -336.12109375 350.703125 C-336.11927094 349.60572998 -336.11744812 348.50833496 -336.11557007 347.37768555 C-336.06840893 330.48324541 -335.54141609 313.90933452 -332.80859375 297.203125 C-332.55118408 295.59969238 -332.55118408 295.59969238 -332.28857422 293.96386719 C-322.09954995 232.42908076 -296.15185585 175.48803758 -256.80859375 127.203125 C-256.13231934 126.3680542 -256.13231934 126.3680542 -255.44238281 125.51611328 C-248.04198027 116.45862983 -239.9253906 108.11352589 -231.68359375 99.828125 C-231.1785733 99.31783752 -230.67355286 98.80755005 -230.15322876 98.28179932 C-223.38602543 91.46006718 -216.3409866 85.18207472 -208.80859375 79.203125 C-207.6346636 78.22667842 -206.46358291 77.24678351 -205.296875 76.26171875 C-149.39329763 29.78283298 -72.93934574 0.34659186 0 0 Z " fill="#CBB601" transform="translate(335.80859375,-0.203125)"/>
<path d="M0 0 C0.99629929 -0.00705963 1.99259857 -0.01411926 3.01908875 -0.02139282 C24.22757307 -0.13745572 45.20685745 -0.24881157 66.19140625 3.203125 C67.41311523 3.40180176 68.63482422 3.60047852 69.89355469 3.80517578 C148.92828639 17.07037151 229.53521962 57.44734601 280.00390625 121.4609375 C281.94533131 123.89465249 283.96080936 126.23925012 286.01586914 128.5769043 C338.13162823 188.36580578 364.38630721 270.72340887 364.44140625 349.203125 C364.44241837 350.51271179 364.44241837 350.51271179 364.44345093 351.84875488 C364.34688105 431.2093412 337.1761257 510.06129348 286.19140625 571.203125 C285.38703125 572.18023438 284.58265625 573.15734375 283.75390625 574.1640625 C272.93920134 587.19968001 261.45450777 600.09675295 248.5859375 611.14453125 C246.77787007 612.69893832 244.98639317 614.27267255 243.203125 615.85546875 C233.99458629 623.97656696 224.26262155 631.1906257 214.19140625 638.203125 C213.5562207 638.64897949 212.92103516 639.09483398 212.26660156 639.55419922 C154.79256859 679.71807879 85.12865714 700.40690791 15.25390625 700.453125 C14.33133026 700.45379974 13.40875427 700.45447449 12.45822144 700.45516968 C-38.7704605 700.39605052 -89.57419455 689.52808314 -135.80859375 667.203125 C-136.50597656 666.86958008 -137.20335937 666.53603516 -137.921875 666.19238281 C-142.59588364 663.94698191 -147.21367588 661.60582815 -151.80859375 659.203125 C-152.83919922 658.66896973 -152.83919922 658.66896973 -153.890625 658.12402344 C-190.45400651 639.0235001 -227.15367273 610.42047724 -252.75390625 577.81640625 C-254.94958178 575.02380753 -257.24803452 572.3387381 -259.55859375 569.640625 C-300.32219704 520.52330948 -325.82258227 458.34156365 -333.80859375 395.203125 C-333.93939835 394.1690451 -333.93939835 394.1690451 -334.07284546 393.11407471 C-335.80798065 378.97004184 -336.17032322 364.94271418 -336.12109375 350.703125 C-336.11927094 349.60572998 -336.11744812 348.50833496 -336.11557007 347.37768555 C-336.06840893 330.48324541 -335.54141609 313.90933452 -332.80859375 297.203125 C-332.55118408 295.59969238 -332.55118408 295.59969238 -332.28857422 293.96386719 C-322.09954995 232.42908076 -296.15185585 175.48803758 -256.80859375 127.203125 C-256.13231934 126.3680542 -256.13231934 126.3680542 -255.44238281 125.51611328 C-248.04198027 116.45862983 -239.9253906 108.11352589 -231.68359375 99.828125 C-231.1785733 99.31783752 -230.67355286 98.80755005 -230.15322876 98.28179932 C-223.38602543 91.46006718 -216.3409866 85.18207472 -208.80859375 79.203125 C-207.6346636 78.22667842 -206.46358291 77.24678351 -205.296875 76.26171875 C-149.39329763 29.78283298 -72.93934574 0.34659186 0 0 Z M-30.80859375 90.203125 C-32.4096699 90.40877058 -34.01116172 90.61124143 -35.61328125 90.80859375 C-81.17349393 97.07899979 -124.20664736 117.48522199 -159.80859375 146.203125 C-160.35322266 146.63206055 -160.89785156 147.06099609 -161.45898438 147.50292969 C-169.33529107 153.70985566 -176.44683705 160.64342368 -183.55859375 167.703125 C-184.43418945 168.569375 -185.30978516 169.435625 -186.21191406 170.328125 C-218.09584946 202.36888642 -241.06625888 244.43016048 -251.80859375 288.203125 C-252.03772461 289.1302832 -252.26685547 290.05744141 -252.50292969 291.01269531 C-263.48290261 336.01383259 -263.93000772 385.74440838 -249.80859375 430.203125 C-249.53708496 431.09902344 -249.26557617 431.99492187 -248.98583984 432.91796875 C-237.75251691 469.88682832 -219.13327157 504.44645992 -192.88671875 532.94140625 C-191.0013044 534.99338916 -189.18089342 537.08464454 -187.37109375 539.203125 C-180.77005252 546.74500429 -173.65976326 553.57104939 -165.81640625 559.80859375 C-163.69882187 561.49441093 -161.61791308 563.19654306 -159.55078125 564.94140625 C-137.37375129 583.47153301 -111.79242513 597.13051626 -84.80859375 607.203125 C-83.58914062 607.67363281 -82.3696875 608.14414062 -81.11328125 608.62890625 C-66.52222901 614.0963191 -51.65045843 617.39583393 -36.30859375 619.953125 C-35.04466797 620.16388672 -33.78074219 620.37464844 -32.47851562 620.59179688 C37.20383992 631.80716281 109.39498052 612.9960156 166.36108398 571.87280273 C172.55740511 567.28482903 178.40011194 562.28689434 184.19140625 557.203125 C185.46757813 556.09517578 185.46757813 556.09517578 186.76953125 554.96484375 C197.48200167 545.51368033 207.42807192 535.49712518 216.19140625 524.203125 C217.20929768 522.9255121 218.22755207 521.64818832 219.24609375 520.37109375 C241.12743672 492.66536117 256.25700569 460.96780324 266.19140625 427.203125 C266.74441406 425.38167969 266.74441406 425.38167969 267.30859375 423.5234375 C272.30362542 406.13762958 275.33576244 387.50719448 275.359375 369.40234375 C275.3627034 368.48588577 275.3660318 367.5694278 275.36946106 366.62519836 C275.37449648 364.69146216 275.37687044 362.75771736 275.37670898 360.82397461 C275.37887186 357.93653075 275.39699861 355.04948468 275.41601562 352.16210938 C275.47107195 334.72567832 274.13845063 317.76315502 270.44140625 300.703125 C270.04344849 298.84433716 270.04344849 298.84433716 269.63745117 296.94799805 C261.06123448 257.81314005 243.63124607 220.29181115 218.19140625 189.203125 C217.77068848 188.68621094 217.3499707 188.16929687 216.91650391 187.63671875 C207.22691965 175.780542 197.04092631 163.94458438 185.19140625 154.203125 C184.27617188 153.40003906 183.3609375 152.59695312 182.41796875 151.76953125 C148.85625641 122.40502278 107.58538304 102.80978293 64.19140625 93.203125 C62.95648438 92.92855469 61.7215625 92.65398437 60.44921875 92.37109375 C44.34748645 88.97332695 28.78381669 87.87613947 12.35546875 87.94238281 C9.1964194 87.95310798 6.03793851 87.94242553 2.87890625 87.9296875 C-8.53352499 87.92191694 -19.52749729 88.44877462 -30.80859375 90.203125 Z " fill="#FCFCFC" transform="translate(335.80859375,-0.203125)"/>
<path d="M0 0 C-0.54527344 0.66902344 -1.09054687 1.33804688 -1.65234375 2.02734375 C-11.52637471 14.60196438 -20.56180102 29.38810122 -22.40625 45.5625 C-23.12268682 51.10294478 -23.67105507 54.73020144 -27.80859375 58.68359375 C-30.78295879 60.86316311 -33.91769067 62.78313708 -37.05078125 64.72412109 C-57.40159946 78.04493472 -72.34493831 99.71199993 -77.375 123.5 C-80.92636731 150.30000899 -76.66742677 178.53588607 -61 201 C-57.34799707 205.67327321 -53.24193333 209.86626413 -49 214 C-48.24976563 214.75925781 -47.49953125 215.51851562 -46.7265625 216.30078125 C-41.55927422 221.24716315 -35.71020763 224.6478757 -29.48828125 228.0703125 C-8.70150439 239.56938055 7.5214148 254.84997461 18.3125 276.0625 C18.62582275 276.67424072 18.93914551 277.28598145 19.26196289 277.91625977 C24.63717163 288.90937302 26.6298908 298.69275619 26.4375 310.9375 C26.44458984 312.20529297 26.45167969 313.47308594 26.45898438 314.77929688 C26.40268906 323.22792428 25.27331046 330.87069856 23 339 C22.64679688 340.26714844 22.29359375 341.53429687 21.9296875 342.83984375 C14.46748508 364.75660864 -0.74652013 380.67711106 -21.0625 391.3125 C-40.05351411 400.36781799 -63.03619135 402.46440638 -83.33203125 396.390625 C-114.31466843 384.64427906 -137.3940308 360.18803547 -150.97167969 330.33886719 C-159.04616345 311.97382576 -165.17186524 293.58292576 -168.37890625 273.77734375 C-168.88788999 270.68182631 -169.46957902 267.62910475 -170.125 264.5625 C-175.83866038 236.05474441 -173.02407714 204.21849849 -167 176 C-166.81308594 175.11602539 -166.62617188 174.23205078 -166.43359375 173.32128906 C-157.46546538 132.91488846 -135.94082561 93.32643186 -107.41210938 63.47949219 C-106.4756544 62.4983516 -105.54457769 61.51204753 -104.61914062 60.52050781 C-96.24432444 51.56099007 -86.94529127 44.15203659 -77 37 C-76.38817871 36.55946289 -75.77635742 36.11892578 -75.14599609 35.66503906 C-14.67237453 -7.33618726 -14.67237453 -7.33618726 0 0 Z " fill="#121082" transform="translate(268,122)"/>
<path d="M0 0 C0.55703613 0.44134277 1.11407227 0.88268555 1.68798828 1.33740234 C15.14411445 12.07405954 27.51507198 24.34382722 38 38 C38.79535156 39.00160156 39.59070313 40.00320312 40.41015625 41.03515625 C54.47312242 58.8331282 66.00122659 78.17639211 75 99 C75.30679687 99.70898438 75.61359375 100.41796875 75.9296875 101.1484375 C86.92083863 127.17022266 90.37728297 155.35741431 90.26074219 183.37426758 C90.25002612 186.43005258 90.26070003 189.48524836 90.2734375 192.54101562 C90.28212917 204.50226097 89.64599181 216.15295119 88 228 C87.86368164 229.0113501 87.72736328 230.0227002 87.58691406 231.06469727 C87.25512942 233.40369101 86.8887048 235.73240696 86.5 238.0625 C86.38269531 238.83142578 86.26539063 239.60035156 86.14453125 240.39257812 C85.83442611 242.27488301 85.42693264 244.14070836 85 246 C84.34 246.33 83.68 246.66 83 247 C82.72027344 246.21238281 82.44054687 245.42476563 82.15234375 244.61328125 C75.82206199 227.41364109 64.46439702 204.73219851 47 196 C46.66870117 194.07666016 46.66870117 194.07666016 46.54296875 191.5390625 C46.4852832 190.6018335 46.42759766 189.66460449 46.36816406 188.69897461 C46.27873535 187.17735718 46.27873535 187.17735718 46.1875 185.625 C44.2553797 159.39259447 35.25764652 135.5538787 16 117 C-5.10649392 98.83065572 -32.49206587 90.31174721 -60 92 C-76.01648325 93.4547933 -89.53585922 99.46601362 -103.38305664 107.31542969 C-120.9848321 117.25322021 -138.21255357 122.41685806 -158.4375 122.5 C-159.58557129 122.50628418 -160.73364258 122.51256836 -161.91650391 122.51904297 C-172.789163 122.35783901 -183.26446247 120.56769239 -192.9375 115.4375 C-193.93571777 114.91978027 -193.93571777 114.91978027 -194.95410156 114.39160156 C-217.23960128 102.49260432 -232.63695081 85.44784867 -241.26171875 61.49609375 C-247.58674093 40.21294893 -245.34861337 17.27293072 -235.20068359 -2.34057617 C-223.01807844 -24.79233204 -204.01323256 -39.04817715 -179.94824219 -46.64794922 C-119.2237537 -64.64202237 -47.60391806 -38.09091075 0 0 Z " fill="#EF0100" transform="translate(498,162)"/>
<path d="M0 0 C0.62422852 0.19867676 1.24845703 0.39735352 1.89160156 0.60205078 C25.2825316 8.14113615 41.30620159 23.36007923 52.8125 44.8125 C63.6498035 67.82286767 62.77445753 95.19134438 54.33422852 118.88964844 C48.80627747 133.68897066 41.94959035 146.65230326 32 159 C30.88431641 160.40378906 30.88431641 160.40378906 29.74609375 161.8359375 C16.73286399 177.99497411 2.44617975 193.43482749 -14.31298828 205.75732422 C-15.97101549 206.97864961 -17.60876498 208.22377916 -19.24609375 209.47265625 C-46.626471 230.02523248 -79.92021721 245.03030318 -113.70361328 250.61474609 C-116.00555849 251.00093252 -118.29707579 251.42611963 -120.58984375 251.86328125 C-150.35579473 257.4417771 -184.46766352 258.1464991 -214 251 C-214.90073242 250.78569336 -215.80146484 250.57138672 -216.72949219 250.35058594 C-255.76159261 240.76350943 -290.02382114 220.03907791 -321 195 C-321.57363281 194.53803223 -322.14726562 194.07606445 -322.73828125 193.60009766 C-324.1787513 192.42402301 -325.59213664 191.21491823 -327 190 C-327 189.67 -327 189.34 -327 189 C-326.20980469 189.0721875 -325.41960937 189.144375 -324.60546875 189.21875 C-305.77409559 190.76830299 -287.10090282 191.46301786 -269.4296875 183.671875 C-262.94387078 181.87836941 -256.95670664 185.672506 -251.1875 188.3125 C-227.8179158 198.67809082 -201.62792305 201.93979218 -177.31201172 192.64111328 C-165.55705229 187.85147252 -155.68647015 181.16672285 -146 173 C-145.17628906 172.33484375 -144.35257813 171.6696875 -143.50390625 170.984375 C-126.3758894 156.55515644 -116.60881051 135.01340645 -114 113 C-113.76954784 108.52028607 -113.69910303 104.04578601 -113.65176392 99.5607605 C-113.26092058 69.46671462 -106.38185401 43.37775955 -85.0234375 20.921875 C-63.14190976 0.10574 -29.00865055 -9.68172846 0 0 Z " fill="#FEFEFD" transform="translate(505,348)"/>
<path d="M0 0 C1.58325073 0.01244751 1.58325073 0.01244751 3.19848633 0.02514648 C20.86721919 0.40627137 35.95078508 7.12176419 48.5234375 19.546875 C61.63903739 33.45166571 67.81779838 49.58500484 67.66943359 68.63183594 C67.07126723 86.88555788 58.74769478 103.02685078 45.89453125 115.7734375 C36.02533254 124.52283303 22.59161159 131.6352593 9.25 132.4375 C8.59950684 132.47842773 7.94901367 132.51935547 7.27880859 132.56152344 C-11.12485375 133.56212696 -27.84764631 129.478828 -42.0625 117.0625 C-43.64376417 115.54008547 -45.20718752 113.99886864 -46.75 112.4375 C-47.45898438 111.75042969 -48.16796875 111.06335938 -48.8984375 110.35546875 C-61.6954875 97.14165658 -65.24731546 80.70591534 -65.09960938 62.87182617 C-64.66152323 44.75193203 -57.38190402 29.68125514 -44.2890625 17.06640625 C-31.63949938 6.06759257 -16.80298828 -0.17092347 0 0 Z " fill="#111083" transform="translate(477.75,368.5625)"/>
<path d="M0 0 C4.31026059 3.34750145 8.16537137 7.12635625 12 11 C12.680625 11.65871094 13.36125 12.31742188 14.0625 12.99609375 C25.88136411 25.26344154 29.50178222 41.41780276 29.34741211 57.87939453 C28.88745418 75.75247905 21.96196505 91.59255752 9 104 C8.41089844 104.62003906 7.82179688 105.24007812 7.21484375 105.87890625 C-5.18337972 118.05913898 -22.72372899 122.30005218 -39.52001953 122.31469727 C-56.87548952 122.03391281 -72.00292298 115.01917682 -84.2734375 102.890625 C-98.2935593 88.02688556 -103.93228739 71.16149661 -103.34375 50.9765625 C-102.3785089 32.94723768 -93.87746405 18.16204938 -81 6 C-58.47390576 -13.35938244 -25.25854841 -16.42144233 0 0 Z " fill="#FEFEFE" transform="translate(381,142)"/>
<path d="M0 0 C0.79164551 0.00491455 1.58329102 0.0098291 2.39892578 0.01489258 C17.6769409 0.31771967 31.29697401 6.06812235 43.3125 15.3125 C44.323125 16.034375 45.33375 16.75625 46.375 17.5 C57.66185154 27.31604369 65.59387191 42.97338711 67.1484375 57.828125 C68.55799261 79.17281666 63.31774064 96.54502221 49.18359375 112.75390625 C37.70704701 124.88742883 22.63225686 131.97370422 5.8984375 132.55078125 C-15.37951792 132.93211887 -15.37951792 132.93211887 -24.6875 128.3125 C-25.73550781 127.838125 -26.78351563 127.36375 -27.86328125 126.875 C-44.17730306 118.90010802 -55.63990965 105.68739374 -61.93359375 88.69140625 C-62.18238281 87.90636719 -62.43117187 87.12132812 -62.6875 86.3125 C-63.04199219 85.31347656 -63.39648438 84.31445312 -63.76171875 83.28515625 C-67.34489201 70.47681558 -66.14341309 53.38326196 -60.6875 41.3125 C-60.31367188 40.42949219 -59.93984375 39.54648437 -59.5546875 38.63671875 C-56.7546853 32.52678017 -53.0686006 27.38535333 -48.6875 22.3125 C-48.12675781 21.64476562 -47.56601563 20.97703125 -46.98828125 20.2890625 C-38.81350807 11.31631797 -27.46014493 5.00058726 -15.6875 2.3125 C-14.61886719 1.96703125 -13.55023438 1.6215625 -12.44921875 1.265625 C-8.18435791 0.18501644 -4.37610979 -0.03230811 0 0 Z " fill="#EF0000" transform="translate(204.6875,364.6875)"/>
<path d="M0 0 C2.75123802 1.79565535 5.18276572 3.75673542 7.67578125 5.88867188 C10.57666602 8.40069431 10.57666602 8.40069431 14.2265625 8.8125 C15.10441406 8.4103125 15.10441406 8.4103125 16 8 C17.33333333 7.66666667 18.66666667 7.33333333 20 7 C20.66 8.32 21.32 9.64 22 11 C20.02 11.66 18.04 12.32 16 13 C16.45439453 13.89831543 16.90878906 14.79663086 17.37695312 15.72216797 C19.05823543 19.04859233 20.73426035 22.3776419 22.40869141 25.70751953 C23.13479257 27.14965065 23.86232665 28.59106122 24.59130859 30.03173828 C25.63754818 32.10001872 26.67864446 34.170817 27.71875 36.2421875 C28.04685669 36.88807831 28.37496338 37.53396912 28.7130127 38.19943237 C31 42.77225659 31 42.77225659 31 45 C29.35 45 27.7 45 26 45 C24.06074205 41.45929322 22.12390879 37.91726567 20.1875 34.375 C19.64029297 33.37597656 19.09308594 32.37695312 18.52929688 31.34765625 C15.93686285 26.6027164 13.36500869 21.86278981 11 17 C8.69 17.99 6.38 18.98 4 20 C4.61043166 24.11652484 5.98388228 27.22692374 7.94140625 30.88671875 C8.52470703 31.98951172 9.10800781 33.09230469 9.70898438 34.22851562 C10.32064453 35.36998047 10.93230469 36.51144531 11.5625 37.6875 C12.77576431 39.96030613 13.98558847 42.23495317 15.19140625 44.51171875 C15.72967041 45.51678467 16.26793457 46.52185059 16.82250977 47.55737305 C18 50 18 50 18 52 C15.1875 52.25 15.1875 52.25 12 52 C10.30078125 49.984375 10.30078125 49.984375 9 48 C8.34257812 48.75796875 8.34257812 48.75796875 7.671875 49.53125 C3.56240095 53.74095513 0.73325225 55.52234616 -5.25 55.625 C-9.44470822 55.50546168 -11.98962357 55.03152661 -15 52 C-15.144375 50.845 -15.28875 49.69 -15.4375 48.5 C-15.623125 47.345 -15.80875 46.19 -16 45 C-17.65948148 43.98812105 -19.32580562 42.9873454 -21 42 C-21.3125 38.8125 -21.3125 38.8125 -21 36 C-14.25 32 -14.25 32 -12 32 C-12.33 31.34 -12.66 30.68 -13 30 C-16.11253583 30.45772586 -18.25349805 31.13450917 -21.0625 32.625 C-24 34 -24 34 -26.375 33.6875 C-26.91125 33.460625 -27.4475 33.23375 -28 33 C-28 32.01 -28 31.02 -28 30 C-22.91221347 27.43143822 -17.82185221 24.86808116 -12.72900391 22.30957031 C-10.99585863 21.4379604 -9.26343316 20.56491767 -7.53173828 19.69042969 C-5.0464641 18.43570054 -2.55867004 17.18610074 -0.0703125 15.9375 C0.70682098 15.54377197 1.48395447 15.15004395 2.28463745 14.74438477 C7.77225659 12 7.77225659 12 10 12 C10 11.34 10 10.68 10 10 C9.1646875 9.5978125 9.1646875 9.5978125 8.3125 9.1875 C6 8 6 8 3.75 6.3125 C-0.19862478 4.42792908 -2.74249493 5.20622787 -7 6 C-7.99 4.68 -8.98 3.36 -10 2 C-6.55275163 -0.12138361 -4.01453039 -0.43151353 0 0 Z " fill="#0D0D0D" transform="translate(209,46)"/>
<path d="M0 0 C4.77799476 3.10687344 8.62177818 6.75499816 11.0625 11.9375 C12.61434788 15.11072432 12.61434788 15.11072432 15.01171875 15.65625 C17.49428156 16.00916664 17.49428156 16.00916664 21 16 C21 17.65 21 19.3 21 21 C18.69 21 16.38 21 14 21 C14.10828125 22.40185547 14.10828125 22.40185547 14.21875 23.83203125 C14.97752224 34.57076621 15.10528838 45.23718832 15 56 C13.35 55.34 11.7 54.68 10 54 C9.0902196 46.60072623 8.87589255 39.32476219 8.9375 31.875 C8.94201172 30.823125 8.94652344 29.77125 8.95117188 28.6875 C8.96281989 26.12493779 8.97917447 23.56250123 9 21 C7.28296875 21.24556641 7.28296875 21.24556641 5.53125 21.49609375 C1.16856604 22.04142924 -3.10904924 22.11535404 -7.5 22.0625 C-8.22703125 22.05798828 -8.9540625 22.05347656 -9.703125 22.04882812 C-11.46878681 22.03721193 -13.2344053 22.01928441 -15 22 C-15 25.63 -15 29.26 -15 33 C-13.68 32.01 -12.36 31.02 -11 30 C-7.16792971 29.42926613 -5.54018482 29.65624602 -2.25 31.75 C0.91780302 34.91780302 1.81573165 36.6837975 2.4375 41.125 C1.83995601 46.41753247 -0.41100592 50.40453551 -3 55 C-4.65 54.34 -6.3 53.68 -8 53 C-7.731875 52.484375 -7.46375 51.96875 -7.1875 51.4375 C-3.57818175 44.0734938 -3.57818175 44.0734938 -3 36 C-6.34731984 35.6956982 -8.33225607 35.56119684 -11.1875 37.4375 C-13.89252776 41.26184959 -13.43523763 44.69030461 -13.25 49.25 C-13.22292969 50.51070312 -13.22292969 50.51070312 -13.1953125 51.796875 C-13.14830798 53.86507395 -13.07656724 55.93268441 -13 58 C-15.9453125 56.76171875 -15.9453125 56.76171875 -19 55 C-20.08407859 52.24770339 -19.90133415 50.00930828 -20 47 C-20.515625 47.515625 -21.03125 48.03125 -21.5625 48.5625 C-24 50 -24 50 -27.4375 50.0625 C-32.04379907 48.6886915 -33.45672117 47.0393252 -36 43 C-37.18668701 38.84659546 -37.272695 36.76067553 -35.8125 32.6875 C-33.91132939 29.86852288 -33.22782994 28.89661943 -30 28 C-27.66796188 27.9222654 -25.33160941 27.91032272 -23 28 C-22.67 29.65 -22.34 31.3 -22 33 C-24.01822917 33.45572917 -26.03645833 33.91145833 -28.0546875 34.3671875 C-30.20719964 34.90474428 -30.20719964 34.90474428 -32 37 C-31.67673447 40.59679066 -31.67673447 40.59679066 -31 44 C-25.89447056 43.72306906 -25.89447056 43.72306906 -21.78125 40.9375 C-19.55775841 37.27068931 -19.54569937 34.32549168 -19.75 30.1875 C-19.8325 27.815625 -19.915 25.44375 -20 23 C-26.27 23 -32.54 23 -39 23 C-39 21.68 -39 20.36 -39 19 C-29.1 18.34 -19.2 17.68 -9 17 C-9.99 15.35 -10.98 13.7 -12 12 C-12.56652214 8.92751055 -12.51643285 6.08078909 -12 3 C-9.17705178 -0.8815538 -4.4259673 -1.21344622 0 0 Z " fill="#0F0F0F" transform="translate(336,17)"/>
<path d="M0 0 C3.0030664 0.67299795 5.71686043 1.64298789 8.546875 2.84765625 C9.81337891 3.38422852 9.81337891 3.38422852 11.10546875 3.93164062 C11.97816406 4.30482422 12.85085938 4.67800781 13.75 5.0625 C15.08224609 5.62807617 15.08224609 5.62807617 16.44140625 6.20507812 C18.62873255 7.13410381 20.81486803 8.06582752 23 9 C22.67 10.32 22.34 11.64 22 13 C18.0507432 12.44894091 14.65079826 11.61064629 11 10 C10.01 13.3 9.02 16.6 8 20 C12.23000664 24.68322164 16.60569379 24.60633357 22.55078125 24.921875 C23.35902344 24.94765625 24.16726563 24.9734375 25 25 C24.51144531 24.41476563 24.02289063 23.82953125 23.51953125 23.2265625 C21.37183782 20.0795567 21.65538732 17.72181698 22 14 C24 12 24 12 27.875 11.625 C30.76344993 11.72478282 31.92985799 11.95966835 34.5 13.4375 C36.73348538 17.25303752 36.7778072 20.6874056 36 25 C33.94161475 28.33600367 32.2606736 29.8262176 29 32 C25.57982443 32.39958487 22.12706959 32.5635348 19 31 C19.4125 32.11375 19.825 33.2275 20.25 34.375 C20.48203125 35.00148437 20.7140625 35.62796875 20.953125 36.2734375 C22.35157914 38.57984321 23.45948873 39.11787803 26 40 C28.82085728 40.24073194 28.82085728 40.24073194 31.75 40.125 C32.73484375 40.10695312 33.7196875 40.08890625 34.734375 40.0703125 C35.48203125 40.04710937 36.2296875 40.02390625 37 40 C37.226875 39.236875 37.45375 38.47375 37.6875 37.6875 C39.48165488 32.64677913 41.74058077 27.84654049 44 23 C42.35 22.67 40.7 22.34 39 22 C39 20.35 39 18.7 39 17 C43.13467099 18.32072281 47.08736959 19.84285456 51.0546875 21.6015625 C52.16328125 22.09140625 53.271875 22.58125 54.4140625 23.0859375 C55.55617188 23.59382813 56.69828125 24.10171875 57.875 24.625 C59.62296875 25.3984375 59.62296875 25.3984375 61.40625 26.1875 C64.27191765 27.45591027 67.13645045 28.72681693 70 30 C69.67 31.32 69.34 32.64 69 34 C64.25 33.125 64.25 33.125 62 32 C61.72816895 32.86061035 61.45633789 33.7212207 61.17626953 34.60791016 C60.01937295 37.94413289 58.66896716 41.07307057 57.1796875 44.2734375 C56.64472656 45.42714844 56.10976563 46.58085938 55.55859375 47.76953125 C55.00300781 48.95933594 54.44742188 50.14914063 53.875 51.375 C53.30569502 52.60012358 52.73668183 53.82538279 52.16796875 55.05078125 C50.7815068 58.03519934 49.3920964 61.01820703 48 64 C46.5 62.68652344 46.5 62.68652344 45 61 C45 54.3257813 48.18773511 48.67137996 51 42.75 C51.91777696 40.78697705 52.83449271 38.8234575 53.75 36.859375 C54.15734375 35.99795898 54.5646875 35.13654297 54.984375 34.24902344 C56.08685425 31.90983994 56.08685425 31.90983994 57 29 C54.36 28.34 51.72 27.68 49 27 C44.38 36.9 39.76 46.8 35 57 C34.01 56.67 33.02 56.34 32 56 C30.7323561 53.26969007 30.95688402 52.12647354 31.9375 49.25 C32.4634375 48.13625 32.4634375 48.13625 33 47 C32.33613281 46.90203125 31.67226563 46.8040625 30.98828125 46.703125 C25.69931843 45.80747582 21.76149001 45.1141297 18 41 C15.74558327 37.02793243 15.82340285 33.50322732 16 29 C15.278125 28.938125 14.55625 28.87625 13.8125 28.8125 C11 28 11 28 8.625 25.375 C7.325625 24.199375 7.325625 24.199375 6 23 C2.37434139 23.28860179 2.37434139 23.28860179 -1 24 C-0.7834375 24.97582031 -0.566875 25.95164062 -0.34375 26.95703125 C-0.0653125 28.22933594 0.213125 29.50164062 0.5 30.8125 C0.7784375 32.07707031 1.056875 33.34164062 1.34375 34.64453125 C2 38 2 38 2 41 C1.01 41 0.02 41 -1 41 C-3.56943546 32.51168642 -4.38558031 24.85406634 -4 16 C-3.01 15.67 -2.02 15.34 -1 15 C0.32 15.66 1.64 16.32 3 17 C3.99 14.03 4.98 11.06 6 8 C2.535 6.02 2.535 6.02 -1 4 C-0.67 2.68 -0.34 1.36 0 0 Z " fill="#0D0D0D" transform="translate(440,46)"/>
<path d="M0 0 C4.6463583 1.8949589 9.38544733 4.05697426 13.25 7.3125 C13.25 7.9725 13.25 8.6325 13.25 9.3125 C13.91386719 9.0959375 14.57773437 8.879375 15.26171875 8.65625 C16.14472656 8.3778125 17.02773438 8.099375 17.9375 7.8125 C18.80761719 7.5340625 19.67773438 7.255625 20.57421875 6.96875 C23.24391677 6.31399195 25.51396684 6.19418505 28.25 6.3125 C28.25 7.6325 28.25 8.9525 28.25 10.3125 C26.6 10.6425 24.95 10.9725 23.25 11.3125 C24.27126869 16.02751619 25.33433985 20.71895835 26.5390625 25.390625 C26.75820313 26.24140625 26.97734375 27.0921875 27.203125 27.96875 C27.65532678 29.71445919 28.11112399 31.45924056 28.5703125 33.203125 C28.786875 34.04875 29.0034375 34.894375 29.2265625 35.765625 C29.42330566 36.52004883 29.62004883 37.27447266 29.82275391 38.05175781 C30.28870414 40.51730019 30.32226855 42.80902922 30.25 45.3125 C28.6 44.9825 26.95 44.6525 25.25 44.3125 C24.28712186 41.0013043 23.33055083 37.68831696 22.375 34.375 C22.10558594 33.44880859 21.83617187 32.52261719 21.55859375 31.56835938 C19.91297434 25.84882848 18.48035322 20.13577372 17.25 14.3125 C13.95 14.6425 10.65 14.9725 7.25 15.3125 C7.6109375 16.56546875 7.971875 17.8184375 8.34375 19.109375 C8.81277383 20.7603389 9.28150875 22.41138489 9.75 24.0625 C9.98847656 24.8875 10.22695313 25.7125 10.47265625 26.5625 C10.69824219 27.36171875 10.92382812 28.1609375 11.15625 28.984375 C11.36572266 29.7175293 11.57519531 30.45068359 11.79101562 31.20605469 C12.25 33.3125 12.25 33.3125 12.25 37.3125 C7.25088076 36.83639341 4.27167317 35.28087781 0.25 32.3125 C0.58 31.3225 0.91 30.3325 1.25 29.3125 C2.57 29.3125 3.89 29.3125 5.25 29.3125 C4.26 25.3525 3.27 21.3925 2.25 17.3125 C0.6825 17.6425 -0.885 17.9725 -2.5 18.3125 C-5.75700022 18.99818426 -8.3825319 19.3125 -11.75 19.3125 C-10.9812427 22.41718451 -10.20987464 25.52121347 -9.4375 28.625 C-9.2103833 29.53894531 -8.9832666 30.45289063 -8.74926758 31.39453125 C-7.34123863 37.03265355 -5.86897434 42.64239949 -4.23046875 48.21875 C-3.75 50.3125 -3.75 50.3125 -3.75 54.3125 C-6.578125 53.921875 -6.578125 53.921875 -9.75 52.3125 C-11.24245044 49.19931722 -11.83579147 45.9361059 -12.5 42.5625 C-12.88878365 40.77564003 -13.27936649 38.98917045 -13.671875 37.203125 C-13.85057129 36.3570166 -14.02926758 35.5109082 -14.21337891 34.63916016 C-14.86947283 31.79449451 -15.80710741 29.07322154 -16.75 26.3125 C-16.875 23.4375 -16.875 23.4375 -16.75 21.3125 C-18.4 21.6425 -20.05 21.9725 -21.75 22.3125 C-22.08 20.9925 -22.41 19.6725 -22.75 18.3125 C-21.76 17.6525 -20.77 16.9925 -19.75 16.3125 C-20.41 15.466875 -21.07 14.62125 -21.75 13.75 C-24.07543335 9.75316142 -24.57563373 7.85348553 -23.75 3.3125 C-17.85695857 -4.38119298 -8.39196813 -2.84790017 0 0 Z " fill="#101010" transform="translate(260.75,31.6875)"/>
<path d="M0 0 C3.08919052 1.61713639 5.98072161 3.37285202 8.91601562 5.24414062 C12.35317082 7.43371432 12.35317082 7.43371432 16.29296875 7.8125 C16.85628906 7.544375 17.41960937 7.27625 18 7 C18.7425 6.649375 19.485 6.29875 20.25 5.9375 C20.8275 5.628125 21.405 5.31875 22 5 C22.66 6.32 23.32 7.64 24 9 C22.68 9.99 21.36 10.98 20 12 C21.40092508 15.02825801 23.05874825 17.53034878 25.1171875 20.15234375 C25.72433594 20.92900391 26.33148438 21.70566406 26.95703125 22.50585938 C27.58996094 23.30830078 28.22289062 24.11074219 28.875 24.9375 C29.50019531 25.73607422 30.12539062 26.53464844 30.76953125 27.35742188 C33.29637182 30.58141402 35.8264865 33.79128487 38.4453125 36.94140625 C40 39 40 39 40 41 C37.30078125 41.328125 37.30078125 41.328125 34 41 C31.54296875 38.796875 31.54296875 38.796875 29.1875 35.75 C28.76807129 35.21729492 28.34864258 34.68458984 27.91650391 34.13574219 C26.58995687 32.43891506 25.2932001 30.72234024 24 29 C23.11875493 27.84354775 22.23724798 26.68729501 21.35546875 25.53125 C19.21221055 22.70557574 17.09864103 19.85901821 15 17 C12.69 18.32 10.38 19.64 8 21 C12.09854918 27.63317828 16.8353482 33.66411318 21.77246094 39.68188477 C24.47445976 42.99604164 26.91545563 46.24638747 29 50 C25.8125 50.375 25.8125 50.375 22 50 C19.7527123 48.19771976 18.62056576 46.45540267 17 44 C17 43.34 17 42.68 17 42 C16.34 42 15.68 42 15 42 C14.896875 42.928125 14.79375 43.85625 14.6875 44.8125 C13.96237678 49.99499832 12.44330995 54.98018616 11 60 C9.02 60 7.04 60 5 60 C5.47811177 58.22888156 5.9575278 56.45811517 6.4375 54.6875 C6.70433594 53.70136719 6.97117188 52.71523437 7.24609375 51.69921875 C7.78079425 49.78482474 8.37144538 47.88566385 9 46 C8.21496094 46.10441406 7.42992187 46.20882812 6.62109375 46.31640625 C3.21823314 46.57944946 0.35947121 46.64410914 -3 46 C-5.3560699 43.83393574 -6.80335117 41.73180917 -8.40234375 38.96875 C-9.86390878 36.6937142 -9.86390878 36.6937142 -12.69140625 36.71875 C-13.45324219 36.8115625 -14.21507812 36.904375 -15 37 C-15.33 35.68 -15.66 34.36 -16 33 C-13.12773012 30.74649757 -10.25170171 28.49784134 -7.375 26.25 C-6.56675781 25.61578125 -5.75851563 24.9815625 -4.92578125 24.328125 C-0.71453804 21.04130103 3.50144497 17.88256924 8 15 C5.04622502 12.63019987 5.04622502 12.63019987 1 13 C0.67 13.66 0.34 14.32 0 15 C-2.475 14.01 -2.475 14.01 -5 13 C-5 12.34 -5 11.68 -5 11 C-1.08780497 8.39186998 1.62101211 9.12899693 6 10 C8.36692452 10.59173113 10.66944442 11.27170138 13 12 C13 11.34 13 10.68 13 10 C12.113125 9.731875 11.22625 9.46375 10.3125 9.1875 C7 8 7 8 4.4375 6.3125 C2.05584581 4.75081348 2.05584581 4.75081348 -0.75 5.1875 C-3.17221913 5.76996879 -3.17221913 5.76996879 -4 8 C-5.98 7.34 -7.96 6.68 -10 6 C-8.28539522 0.85618566 -5.26310457 -0.63127893 0 0 Z " fill="#0E0E0E" transform="translate(151,76)"/>
<path d="M0 0 C1.32 0.33 2.64 0.66 4 1 C3.33333333 3.66666667 2.66666667 6.33333333 2 9 C2.92039062 9.54527344 3.84078125 10.09054688 4.7890625 10.65234375 C13.64714752 15.92195597 22.36536924 21.37218981 31 27 C27.70092157 29.19938562 26.82351966 29.47010775 23 29 C20.26098633 27.63891602 20.26098633 27.63891602 17.33203125 25.75390625 C16.27435547 25.08166016 15.21667969 24.40941406 14.12695312 23.71679688 C13.03318359 23.00587891 11.93941406 22.29496094 10.8125 21.5625 C8.63175507 20.16758619 6.45077745 18.77303608 4.26953125 17.37890625 C3.30635986 16.7557251 2.34318848 16.13254395 1.35083008 15.49047852 C-0.89980625 14.00791372 -0.89980625 14.00791372 -3 13 C-4.49821059 16.37097383 -5 18.20442119 -5 22 C-3.61376853 23.3595512 -3.61376853 23.3595512 -1.66796875 24.33203125 C-0.60050415 24.936521 -0.60050415 24.936521 0.48852539 25.55322266 C1.25543701 25.96878418 2.02234863 26.3843457 2.8125 26.8125 C4.37069236 27.68980843 5.92798293 28.56872045 7.484375 29.44921875 C8.25201172 29.87895996 9.01964844 30.30870117 9.81054688 30.75146484 C14.31867963 33.32222654 18.65430087 36.16544031 23 39 C19.61795818 42.0196802 19.61795818 42.0196802 17.16015625 41.94140625 C13.4222167 40.31239462 10.09176628 38.01878019 6.68945312 35.79492188 C3.14043141 33.50453692 3.14043141 33.50453692 -1 33 C-4.09290642 36.34781629 -5.93010572 39.76520111 -6.1875 44.3125 C-5.17890467 47.13300113 -5.17890467 47.13300113 -2.75 48.875 C2.81375381 50.54412614 8.23454657 50.2309603 14 50 C14 50.99 14 51.98 14 53 C6.94795533 54.6284051 -0.73834022 55.12471027 -7.625 52.75 C-11.70403587 49.74439462 -11.70403587 49.74439462 -13 47 C-13.11585273 41.09151102 -10.66817987 37.5792915 -7.27734375 33.015625 C-5.73235714 30.97537847 -5.73235714 30.97537847 -6 28 C-7.65 27.67 -9.3 27.34 -11 27 C-11.32274902 27.50974365 -11.64549805 28.0194873 -11.97802734 28.54467773 C-13.43871534 30.84548456 -14.90674462 33.14151564 -16.375 35.4375 C-16.88289063 36.23994141 -17.39078125 37.04238281 -17.9140625 37.86914062 C-18.64882812 39.01479492 -18.64882812 39.01479492 -19.3984375 40.18359375 C-19.84880371 40.89056396 -20.29916992 41.59753418 -20.76318359 42.32592773 C-22 44 -22 44 -24 45 C-24.99 44.01 -25.98 43.02 -27 42 C-21.555 33.585 -21.555 33.585 -16 25 C-18.64 24.34 -21.28 23.68 -24 23 C-27 21.25 -27 21.25 -29 19 C-29.625 16.125 -29.625 16.125 -29 13 C-25.8796882 8.22775843 -23.473913 6.35390274 -18 5 C-14.10123349 4.97975718 -10.25482139 5.19086601 -6.36328125 5.41796875 C-2.82053576 5.38012649 -2.82053576 5.38012649 -1.04296875 2.48828125 C-0.69878906 1.66714844 -0.35460937 0.84601563 0 0 Z " fill="#101010" transform="translate(86,161)"/>
<path d="M0 0 C1.32 0 2.64 0 4 0 C6.475 8.415 6.475 8.415 9 17 C11.29714924 17.19605723 11.29714924 17.19605723 13.75 15 C17.32807166 12.79810975 18.89321798 12.28577704 23 13 C25.375 14.4375 25.375 14.4375 27 17 C27.99385732 22.25324582 27.3226991 26.74182142 24.42578125 31.32421875 C22.70966239 33.34124612 20.77809818 34.8155473 18.6875 36.4375 C15.7187001 38.76009809 15.7187001 38.76009809 14.70703125 42.21875 C14.9799235 44.68977008 14.9799235 44.68977008 16 48 C14.35 48 12.7 48 11 48 C10.505 44.535 10.505 44.535 10 41 C8.89785156 41.31453125 7.79570313 41.6290625 6.66015625 41.953125 C-3.83445628 44.92213358 -14.36352157 47.58996248 -25 50 C-24.5234375 47.16796875 -24.5234375 47.16796875 -23 44 C-20.35592276 42.54101094 -17.55816485 41.96348757 -14.625 41.3125 C-13.81949707 41.11245361 -13.01399414 40.91240723 -12.18408203 40.70629883 C-10.55963198 40.30528599 -8.93246953 39.91509533 -7.30273438 39.53613281 C-4.14774062 38.8015732 -1.01308939 37.99079083 2.125 37.1875 C4.538125 36.5996875 4.538125 36.5996875 7 36 C6.505 30.555 6.505 30.555 6 25 C5.113125 25.33 4.22625 25.66 3.3125 26 C-1.85487634 27.55996267 -1.85487634 27.55996267 -5 27 C-7.52516859 24.32412993 -9.64633073 21.58574157 -11.80664062 18.62109375 C-13.13093108 16.91172592 -14.34565935 15.39454045 -16 14 C-19.23605463 13.45478172 -19.23605463 13.45478172 -22 14 C-22.44315352 22.30502515 -21.33067222 27.40012011 -16 34 C-19.75 37 -19.75 37 -22 37 C-26.1901054 30.80462987 -28.41054771 25.54001867 -27 18 C-25.1875 14.5625 -25.1875 14.5625 -23 12 C-22.54625 11.401875 -22.0925 10.80375 -21.625 10.1875 C-19.02623872 8.28840522 -17.21044618 8 -14 8 C-8.81142676 11.35095355 -5.51084882 15.98272314 -2 21 C-0.35 20.67 1.3 20.34 3 20 C2.80083984 18.83984375 2.80083984 18.83984375 2.59765625 17.65625 C1.60135293 11.78024213 0.68315535 5.92067973 0 0 Z " fill="#101010" transform="translate(649,254)"/>
<path d="M0 0 C1.32 0 2.64 0 4 0 C3.67 2.31 3.34 4.62 3 7 C3.57540527 7.10231934 4.15081055 7.20463867 4.74365234 7.31005859 C11.84632606 8.64400622 18.70492836 10.55654602 25.625 12.625 C26.72457031 12.94984375 27.82414062 13.2746875 28.95703125 13.609375 C31.63919991 14.402364 34.32012475 15.19930166 37 16 C35.74389648 18.00170898 35.74389648 18.00170898 34 20 C26.51446584 19.94754881 19.55207145 17.60317726 12.4375 15.4375 C11.33341797 15.10814453 10.22933594 14.77878906 9.09179688 14.43945312 C6.39239648 13.63313872 3.69530881 12.81986701 1 12 C0.67 14.97 0.34 17.94 0 21 C1.20914063 21.31453125 2.41828125 21.6290625 3.6640625 21.953125 C13.47975156 24.51588147 23.26131921 27.15624166 33 30 C33 30.66 33 31.32 33 32 C28.7988135 34.800791 25.80639289 33.89098099 21 33 C18.97975201 32.3974699 16.96766531 31.75679435 15 31 C14.86722656 31.61488281 14.73445313 32.22976563 14.59765625 32.86328125 C14.33275391 34.07564453 14.33275391 34.07564453 14.0625 35.3125 C13.80146484 36.51326172 13.80146484 36.51326172 13.53515625 37.73828125 C13 40 13 40 12 43 C13.98 43.33 15.96 43.66 18 44 C16.93262982 47.09537351 16.02481433 47.98455997 13.1875 49.75 C10.13441107 50.94728978 8.22691821 51.28472808 5 51 C5.33 49.35 5.66 47.7 6 46 C3.71305777 45.49620971 3.71305777 45.49620971 1 46 C-0.19019682 47.54403912 -1.37883168 49.08956889 -2.5390625 50.65625 C-4.45025174 52.41413529 -5.6204904 52.46293127 -8.1875 52.5 C-12 52 -12 52 -14 50 C-14.57104467 45.67637611 -14.44291759 43.66437638 -12 40 C-8.65929672 37.77286448 -7.09351541 37.69661145 -3.203125 38.46875 C-2.47609375 38.6440625 -1.7490625 38.819375 -1 39 C-0.16984375 39.1753125 0.6603125 39.350625 1.515625 39.53125 C3.68284134 39.99467991 5.84226021 40.49427974 8 41 C8.66 37.04 9.32 33.08 10 29 C8.02 28.67 6.04 28.34 4 28 C1.63997899 27.40346332 -0.66712432 26.6998627 -3 26 C-3.33 28.31 -3.66 30.62 -4 33 C-6.475 33.495 -6.475 33.495 -9 34 C-6.81143974 22.40447018 -3.50856959 11.25261765 0 0 Z " fill="#0F0F0F" transform="translate(41,245)"/>
<path d="M0 0 C4.293841 1.43128033 5.76931653 4.41766028 8.3671875 8.00317383 C8.76550781 8.55255615 9.16382813 9.10193848 9.57421875 9.66796875 C9.97560059 10.22532715 10.37698242 10.78268555 10.79052734 11.35693359 C11.93282525 12.90874323 13.13100474 14.41896574 14.33203125 15.92578125 C21.37928972 24.9030997 21.37928972 24.9030997 21.5703125 30.79296875 C20.34252302 35.54434584 16.71757276 38.97867369 13 42 C10.02938852 43.44043245 8.31818661 44 5 44 C4.67 42.68 4.34 41.36 4 40 C4.81404297 39.61908203 4.81404297 39.61908203 5.64453125 39.23046875 C6.35996094 38.88628906 7.07539062 38.54210937 7.8125 38.1875 C8.52019531 37.85105469 9.22789062 37.51460937 9.95703125 37.16796875 C12.07067292 35.95959617 13.50747548 34.92507143 15 33 C14.77589301 28.81666944 14.3385104 26.50776561 12 23 C11.566875 23.928125 11.13375 24.85625 10.6875 25.8125 C7.69765562 31.45998383 7.69765562 31.45998383 3.94921875 32.65234375 C-0.28494793 33.18618514 -2.40795021 33.30161027 -6.3125 31.3125 C-7.199375 30.549375 -8.08625 29.78625 -9 29 C-9.7425 28.38125 -10.485 27.7625 -11.25 27.125 C-14.2971442 23.42489633 -15.02238153 20.25336595 -14.9375 15.5 C-13.77414647 11.1568135 -12.28028431 9.06635272 -9 6 C-6.67891331 5.29187186 -4.34622853 4.61975848 -2 4 C-0.50256112 2.01432266 -0.50256112 2.01432266 0 0 Z " fill="#0E0E0E" transform="translate(531,582)"/>
<path d="M0 0 C1.32 0.66 2.64 1.32 4 2 C3.01 3.32 2.02 4.64 1 6 C2.50721148 9.76381862 4.64916931 11.58463482 7.8125 14.0625 C9.27042969 15.22265625 9.27042969 15.22265625 10.7578125 16.40625 C11.27891602 16.82003906 11.80001953 17.23382813 12.33691406 17.66015625 C15.33249507 20.07350747 18.25720263 22.57063498 21.1875 25.0625 C21.76411377 25.55177979 22.34072754 26.04105957 22.93481445 26.54516602 C24.29058907 27.69593813 25.64540454 28.84784011 27 30 C23.25 32.0234375 23.25 32.0234375 21 31.8125 C18.67095092 30.86632381 16.93636314 29.59058401 15 28 C14.51080078 28.83144531 14.51080078 28.83144531 14.01171875 29.6796875 C13.57472656 30.40414062 13.13773438 31.12859375 12.6875 31.875 C12.25824219 32.59429687 11.82898438 33.31359375 11.38671875 34.0546875 C10 36 10 36 7 38 C0.73823197 38.75691701 -4.59392883 38.50664076 -10 35 C-9.34 34.01 -8.68 33.02 -8 32 C-7.5832448 28.95788569 -7.5832448 28.95788569 -8 26 C-10.66956302 23.78181673 -10.66956302 23.78181673 -12.9375 24.125 C-15.58139311 25.24665162 -17.09095436 26.88641376 -19 29 C-20.32 28.34 -21.64 27.68 -23 27 C-18.87482343 21.15599986 -14.2970682 15.94360563 -9.40332031 10.74536133 C-6.13119944 7.26407593 -3.02608289 3.69792882 0 0 Z " fill="#0C0C0C" transform="translate(115,128)"/>
<path d="M0 0 C0.66 0 1.32 0 2 0 C3.55859375 2.0625 3.55859375 2.0625 5.4375 5 C6.50291016 6.6396875 6.50291016 6.6396875 7.58984375 8.3125 C8.16968018 9.20582031 8.16968018 9.20582031 8.76123047 10.1171875 C10.95314118 13.44868443 13.2310967 16.7206889 15.5 20 C17.3354157 22.66523758 19.16832117 25.33219307 21 28 C21.41942871 28.61069336 21.83885742 29.22138672 22.27099609 29.85058594 C23.41514104 31.52176738 24.55155942 33.19823107 25.6875 34.875 C26.33074219 35.82117188 26.97398437 36.76734375 27.63671875 37.7421875 C29 40 29 40 29 42 C27.25 42.75 27.25 42.75 25 43 C22.859375 41.015625 22.859375 41.015625 21 39 C20.15703369 39.57556641 19.31406738 40.15113281 18.44555664 40.74414062 C15.32930493 42.87098586 12.21099496 44.99479571 9.09204102 47.11767578 C7.74023643 48.03839244 6.3889979 48.95994076 5.03833008 49.88232422 C3.10124159 51.20497136 1.16216325 52.52465277 -0.77734375 53.84375 C-1.68830055 54.46715271 -1.68830055 54.46715271 -2.61766052 55.10314941 C-6.88612829 58 -6.88612829 58 -8 58 C-8.35546875 54.77514648 -8.35546875 54.77514648 -8 51 C-5.61328125 48.64477539 -5.61328125 48.64477539 -2.3125 46.59765625 C-1.73540283 46.23022812 -1.15830566 45.86279999 -0.5637207 45.48423767 C1.27706202 44.3197348 3.13716281 43.19131009 5 42.0625 C6.25403672 41.27767501 7.50666127 40.49058872 8.7578125 39.70117188 C11.82261056 37.77430491 14.90568221 35.87919033 18 34 C16.68 31.69 15.36 29.38 14 27 C6.42062557 30.99822571 -0.51094161 35.69676755 -7.50976562 40.62304688 C-8.31994141 41.18701172 -9.13011719 41.75097656 -9.96484375 42.33203125 C-10.6930835 42.84483643 -11.42132324 43.3576416 -12.17163086 43.88598633 C-14 45 -14 45 -16 45 C-16.25 42.1875 -16.25 42.1875 -16 39 C-14.125 37.125 -14.125 37.125 -12 36 C-11.34 36 -10.68 36 -10 36 C-10 35.34 -10 34.68 -10 34 C-10.598125 33.731875 -11.19625 33.46375 -11.8125 33.1875 C-14.76067051 31.58706458 -16.61312258 30.21623142 -17.65234375 26.94921875 C-18.20187378 22.59061759 -18.30033234 20.56959582 -16.1875 16.5625 C-12.33068362 12.0445151 -12.33068362 12.0445151 -8.75 11.5625 C-3.76226993 12.14440184 -2.401011 13.35605965 1 17 C2.0625 19.625 2.0625 19.625 2 22 C0.5625 23.8125 0.5625 23.8125 -1 25 C-1.515625 24.030625 -2.03125 23.06125 -2.5625 22.0625 C-4.76143246 18.68310791 -4.76143246 18.68310791 -8.625 18 C-9.73875 18 -10.8525 18 -12 18 C-12.66 18.66 -13.32 19.32 -14 20 C-14 23.84312927 -12.96713783 25.03515488 -10.3125 27.875 C-7.25670123 30.28191154 -7.25670123 30.28191154 -4.16015625 29.88671875 C-0.4569478 28.84762318 1.83300726 27.27464077 4.875 24.9375 C5.84179688 24.20402344 6.80859375 23.47054687 7.8046875 22.71484375 C8.52914062 22.14894531 9.25359375 21.58304688 10 21 C9.66677734 20.53625977 9.33355469 20.07251953 8.99023438 19.59472656 C7.48369332 17.48662261 5.99179149 15.36856383 4.5 13.25 C3.97535156 12.52039063 3.45070313 11.79078125 2.91015625 11.0390625 C2.41386719 10.33007812 1.91757812 9.62109375 1.40625 8.890625 C0.94541016 8.24125977 0.48457031 7.59189453 0.00976562 6.92285156 C-1 5 -1 5 -1 1 C-0.67 0.67 -0.34 0.34 0 0 Z " fill="#0D0D0D" transform="translate(598,157)"/>
<path d="M0 0 C2.23038201 4.67418488 4.45381285 9.35159168 6.67114258 14.03198242 C7.42482061 15.6204294 8.18031959 17.20801381 8.93774414 18.79467773 C10.0324289 21.08868092 11.12030811 23.38581019 12.20703125 25.68359375 C12.54152786 26.38085068 12.87602448 27.0781076 13.22065735 27.79649353 C15.55251898 32.75025518 17.37010103 37.77470629 19 43 C17.02 43.495 17.02 43.495 15 44 C14.34 42.35 13.68 40.7 13 39 C3.72696194 42.75363696 -5.45575513 46.56779015 -14.4609375 50.93359375 C-17 52 -17 52 -20 52 C-20 50.35 -20 48.7 -20 47 C-16.39947679 45.31676785 -12.79821269 43.63516969 -9.1953125 41.95703125 C-6.52034292 40.71089291 -3.84860541 39.45826087 -1.1796875 38.19921875 C0.54894531 37.38904297 0.54894531 37.38904297 2.3125 36.5625 C3.36050781 36.06878906 4.40851562 35.57507813 5.48828125 35.06640625 C8 34 8 34 10 34 C9.71125 33.37351563 9.4225 32.74703125 9.125 32.1015625 C8.75375 31.28429687 8.3825 30.46703125 8 29.625 C7.62875 28.81289062 7.2575 28.00078125 6.875 27.1640625 C6 25 6 25 6 23 C1.545 24.485 1.545 24.485 -3 26 C-4.00508801 24.21118264 -5.00392736 22.41885304 -6 20.625 C-6.556875 19.62726563 -7.11375 18.62953125 -7.6875 17.6015625 C-9 15 -9 15 -9 13 C-9.99 13.33 -10.98 13.66 -12 14 C-11.53850662 16.15363576 -11.04396818 17.91981281 -9.98046875 19.859375 C-8.31826842 23.48840201 -8.56238132 27.09012814 -9 31 C-10 33.5625 -10 33.5625 -12 35 C-14.8489881 35.44861367 -17.06710832 35.27932302 -20 35 C-20.66 34.34 -21.32 33.68 -22 33 C-21.625 30.375 -21.625 30.375 -21 28 C-20.01 28 -19.02 28 -18 28 C-17.34 28.99 -16.68 29.98 -16 31 C-15.01 31 -14.02 31 -13 31 C-13.29019902 27.22741269 -13.51657629 24.67334017 -15.75 21.5625 C-17.91396374 19.82206669 -17.91396374 19.82206669 -20.625 19.5625 C-21.800625 19.7790625 -21.800625 19.7790625 -23 20 C-25.42479736 23.63719605 -25.38662577 25.85703482 -25.625 30.1875 C-25.69976563 31.45980469 -25.77453125 32.73210937 -25.8515625 34.04296875 C-25.90054688 35.01878906 -25.94953125 35.99460938 -26 37 C-26.66 37 -27.32 37 -28 37 C-29.14888581 33.55334258 -29.2039347 30.75648095 -29.25 27.125 C-29.27578125 25.91070312 -29.3015625 24.69640625 -29.328125 23.4453125 C-28.97446831 19.73191722 -28.25141594 17.93525723 -26 15 C-21.8204355 12.21362367 -19.85331323 13.20437488 -15 14 C-14.566875 13.071875 -14.566875 13.071875 -14.125 12.125 C-13 10 -13 10 -11 8 C-8.125 7.8125 -8.125 7.8125 -5 9 C-2.8963615 12.29655546 -1 16.03356303 -1 20 C-0.01 19.67 0.98 19.34 2 19 C0.66111932 14.72697655 -0.68070434 10.63859132 -2.6875 6.625 C-4 4 -4 4 -4 1 C-2 0 -2 0 0 0 Z " fill="#0F0F0F" transform="translate(631,204)"/>
<path d="M0 0 C3.33084466 1.62105051 5.32100755 3.64201511 7 7 C7.1328125 8.875 7.1328125 8.875 7.125 11 C7.12886719 12.051875 7.12886719 12.051875 7.1328125 13.125 C7 15 7 15 6 17 C6.74765625 16.855625 7.4953125 16.71125 8.265625 16.5625 C9.25046875 16.376875 10.2353125 16.19125 11.25 16 C12.22453125 15.814375 13.1990625 15.62875 14.203125 15.4375 C17 15 17 15 21 15 C21.495 17.475 21.495 17.475 22 20 C20.79839233 20.25692627 20.79839233 20.25692627 19.57250977 20.51904297 C16.55877687 21.16361491 13.54511331 21.80850984 10.53149414 22.45361328 C8.60242849 22.86645486 6.67328536 23.27893438 4.74414062 23.69140625 C3.50986328 23.95566406 2.27558594 24.21992188 1.00390625 24.4921875 C-0.20120605 24.74967773 -1.40631836 25.00716797 -2.64794922 25.27246094 C-5.49164561 25.88966525 -8.32591408 26.53656468 -11.16015625 27.1953125 C-15 28 -15 28 -19 28 C-19 26.35 -19 24.7 -19 23 C-18.34 22.67 -17.68 22.34 -17 22 C-17.825 21.38125 -18.65 20.7625 -19.5 20.125 C-21.96656584 17.62289287 -22.54147328 15.61114768 -22.8125 12.125 C-22.56463478 8.0866105 -21.65988875 5.82159196 -18.875 2.875 C-13.2166297 -1.38898619 -6.75209416 -1.1920263 0 0 Z " fill="#0B0B0B" transform="translate(49,390)"/>
<path d="M0 0 C8.54372895 0.51675002 16.75068695 1.75535145 25.125 3.5 C26.24648438 3.72558594 27.36796875 3.95117188 28.5234375 4.18359375 C36.70838648 5.85419324 36.70838648 5.85419324 39 7 C38.67 8.32 38.34 9.64 38 11 C35.69 10.67 33.38 10.34 31 10 C30.93631226 10.97900269 30.93631226 10.97900269 30.87133789 11.9777832 C30.31751764 19.21714226 29.0565848 26.11704283 27.4375 33.1875 C27.20353516 34.23486328 26.96957031 35.28222656 26.72851562 36.36132812 C26.15848767 38.9090041 25.58225164 41.45509518 25 44 C23.68 43.34 22.36 42.68 21 42 C20.74293028 36.08739655 21.7017874 30.76081841 23 25 C21.7625 24.896875 20.525 24.79375 19.25 24.6875 C16.33245367 24.35027048 15.2602882 24.21296307 12.9375 22.3125 C12.298125 21.879375 11.65875 21.44625 11 21 C7.28704716 21.71514394 7.28704716 21.71514394 4 23 C4.7883609 24.77230751 5.58081347 26.54279534 6.375 28.3125 C7.03628906 29.79169922 7.03628906 29.79169922 7.7109375 31.30078125 C8.98242758 34.12745207 8.98242758 34.12745207 11 37 C11 37.99 11 38.98 11 40 C10.01 40 9.02 40 8 40 C6.64678126 37.34189176 5.31777645 34.67562042 4 32 C3.6184375 31.25621094 3.236875 30.51242188 2.84375 29.74609375 C0.306171 24.53499401 -0.42114796 20.79078448 0 15 C1.98 14.67 3.96 14.34 6 14 C6.66 11.03 7.32 8.06 8 5 C5.36 4.67 2.72 4.34 0 4 C0 2.68 0 1.36 0 0 Z " fill="#0D0D0D" transform="translate(387,36)"/>
<path d="M0 0 C3.15513357 2.07951985 4.88159747 3.50686475 6.75 6.8125 C7.81972195 12.52132223 6.7119726 17.14466532 3.89453125 22.15234375 C1.65262776 25.40425155 -0.56640558 26.58463519 -4.25 27.8125 C-10.05693734 28.39319373 -13.27075297 27.95260919 -17.83984375 24.2265625 C-20.9574652 21.10030498 -21.19507535 18.29112912 -21.6875 14 C-21.55606605 9.04306259 -19.36424095 5.55475087 -16.25 1.8125 C-11.34909545 -2.42612015 -5.78321117 -2.11309639 0 0 Z " fill="#0C0C0C" transform="translate(260.25,636.1875)"/>
<path d="M0 0 C3.89675952 1.73795475 5.77622998 4.62464383 7.9375 8.25 C9.2433228 12.85878634 9.3792304 16.40256532 8 21 C5.91134679 24.64931974 3.11725074 27.82364265 -1 29 C-5.63348431 29.44840171 -8.01910777 29.45271949 -12.25 27.5 C-16.88603896 23.28541913 -19.15353009 18.71662198 -19.625 12.4375 C-19.43663344 7.90885404 -17.57503284 5.51307774 -14.5078125 2.3125 C-10.44362772 -1.22523597 -5.08416248 -0.62474878 0 0 Z " fill="#0E0E0E" transform="translate(465,624)"/>
<path d="M0 0 C5.44965711 2.61583541 8.60563342 6.546165 11 12 C11.7186857 17.21047133 10.9161054 20.62584189 8 25 C4.53672571 28.20986397 1.68725101 29.31574613 -2.9375 29.625 C-7.7189573 29.43749187 -10.21031402 27.95364339 -13.625 24.703125 C-17.0653285 20.44180902 -17.43881326 16.8330751 -17.3125 11.47265625 C-16.84228626 7.75209001 -15.52775595 5.72731563 -13 3 C-8.634442 0.089628 -5.20499921 -0.6506249 0 0 Z " fill="#0B0B0B" transform="translate(506,604)"/>
<path d="M0 0 C3.83695223 2.79051072 6.77640226 5.91990467 9.8203125 9.51171875 C11.54692149 11.48277597 13.30313748 13.38102801 15.1171875 15.26953125 C15.66366943 15.84324463 16.21015137 16.41695801 16.77319336 17.00805664 C17.87050028 18.15655082 18.97535945 19.29788316 20.08813477 20.43139648 C24 24.55383832 24 24.55383832 24 29 C21.03824877 28.38722388 19.61941217 27.74627478 17 26 C16.39414062 26.556875 15.78828125 27.11375 15.1640625 27.6875 C10.74074384 31.71612253 6.32658158 35.5234759 1.5 39.0625 C-3.24843414 42.76065743 -4.01473185 45.1869179 -5 51 C-7.07045141 53.28463604 -8.34870768 53.84157754 -11.3125 54.5625 C-15.56127105 53.67322234 -18.14955325 51.18827748 -21 48 C-23.99438711 42.78397085 -24.30744405 38.84143689 -24 33 C-22.515 32.505 -22.515 32.505 -21 32 C-20.87882813 32.59167969 -20.75765625 33.18335938 -20.6328125 33.79296875 C-20.28710816 35.42309765 -19.92307171 37.04942208 -19.54296875 38.671875 C-19.13562414 40.41847491 -18.7748023 42.17603242 -18.4375 43.9375 C-16.60110388 46.57232922 -15.45190217 46.60948323 -12.375 47.3125 C-10.92011565 47.56262996 -9.46239815 47.79839367 -8 48 C-8 46.35 -8 44.7 -8 43 C-10.31 42.67 -12.62 42.34 -15 42 C-14.67 40.35 -14.34 38.7 -14 37 C-12.906875 37.37125 -11.81375 37.7425 -10.6875 38.125 C-7.23510992 38.58409443 -6.15478109 38.11033681 -3.265625 36.05078125 C-0.43503099 33.43521855 2.28516288 30.73500679 5 28 C6.36097859 26.83754729 7.7335165 25.68825872 9.125 24.5625 C12.190469 22.25825308 12.190469 22.25825308 13 19 C12.01 18.67 11.02 18.34 10 18 C9.34 17.01 8.68 16.02 8 15 C2.93029531 15.47528482 -0.17581161 19.74056927 -3.578125 23.13867188 C-7.58621396 27 -7.58621396 27 -12 27 C-12 23.37 -12 19.74 -12 16 C-9.66666667 16 -7.33333333 16 -5 16 C-3.11330505 14.69423497 -3.11330505 14.69423497 -1.3125 13 C-0.68988281 12.443125 -0.06726563 11.88625 0.57421875 11.3125 C1.04472656 10.879375 1.51523437 10.44625 2 10 C0.68 8.02 -0.64 6.04 -2 4 C-1.34 2.68 -0.68 1.36 0 0 Z " fill="#0F0F0F" transform="translate(570,125)"/>
<path d="M0 0 C1.32 0.66 2.64 1.32 4 2 C3.60167969 2.44730469 3.20335937 2.89460937 2.79296875 3.35546875 C-3.75136877 10.58847707 -3.75136877 10.58847707 -5.3515625 20.01171875 C-4.57795164 24.38691793 -1.78130877 27.14975223 1.125 30.3125 C5.30737813 32.76737412 9.17835593 33.31592676 14 33 C17.92609184 31.75710314 20.4554309 29.69772916 23 26.4375 C24.33890227 23.92896884 24.33890227 23.92896884 23 21 C19.54923283 17.68588086 19.54923283 17.68588086 15 17 C13.29467677 18.94009522 13.29467677 18.94009522 12 21 C10.68 20.34 9.36 19.68 8 19 C8.89914699 17.48943306 9.81996101 15.99174571 10.75 14.5 C11.26046875 13.6646875 11.7709375 12.829375 12.296875 11.96875 C12.85890625 11.3190625 13.4209375 10.669375 14 10 C18.7392386 10 20.64364948 11.5877979 24.1875 14.375 C24.73341797 14.7875 25.27933594 15.2 25.84179688 15.625 C29.85358243 18.70716486 29.85358243 18.70716486 31 21 C28.3904903 28.80000988 23.43509423 35.28245289 16 39 C9.07398954 39.74587805 3.41423706 39.70975035 -2.31640625 35.4921875 C-7.57549408 30.83100061 -10.59820787 26.38653363 -11.4375 19.3125 C-11.26693693 13.30867991 -8.45347906 7.56839611 -4.33203125 3.25390625 C-2.6875 1.875 -2.6875 1.875 0 0 Z " fill="#0C0C0C" transform="translate(574,521)"/>
<path d="M0 0 C8.30823271 5.91787526 15.90867843 12.67230104 23 20 C22.34 21.32 21.68 22.64 21 24 C14.07 23.34 7.14 22.68 0 22 C2.3203125 24.10375 2.3203125 24.10375 4.6875 26.25 C5.99267578 27.43335938 5.99267578 27.43335938 7.32421875 28.640625 C9.82420863 30.84499564 12.37945728 32.94133941 15 35 C14.67 36.65 14.34 38.3 14 40 C3.86975045 39.57227835 -6.03312011 39.01291888 -16 37 C-15.34 35.35 -14.68 33.7 -14 32 C-12.90300781 32.144375 -11.80601562 32.28875 -10.67578125 32.4375 C-9.22137548 32.62516526 -7.76694719 32.81265606 -6.3125 33 C-5.59126953 33.09539062 -4.87003906 33.19078125 -4.12695312 33.2890625 C-0.39007129 33.76683735 3.22291531 34.11919794 7 34 C5.25084555 32.56147125 3.50064205 31.12421802 1.75 29.6875 C0.77546875 28.88699219 -0.1990625 28.08648437 -1.203125 27.26171875 C-3.4366262 25.45557742 -5.68687263 23.70180085 -8 22 C-7.67 20.35 -7.34 18.7 -7 17 C-5.37510429 16.9721976 -3.75005717 16.9532554 -2.125 16.9375 C-1.22007812 16.92589844 -0.31515625 16.91429687 0.6171875 16.90234375 C5.09124087 17.03150233 9.54629584 17.55462958 14 18 C8.72 13.71 3.44 9.42 -2 5 C-1.34 3.35 -0.68 1.7 0 0 Z " fill="#0E0E0E" transform="translate(618,458)"/>
<path d="M0 0 C6.4671144 4.24395217 12.80576653 8.63935472 19.0625 13.1875 C19.92810547 13.80302734 20.79371094 14.41855469 21.68554688 15.05273438 C22.50216797 15.64763672 23.31878906 16.24253906 24.16015625 16.85546875 C24.89886963 17.38809326 25.63758301 17.92071777 26.39868164 18.46948242 C26.9271167 18.97455322 27.45555176 19.47962402 28 20 C28 20.99 28 21.98 28 23 C27.01 23.33 26.02 23.66 25 24 C22.3125 22.5625 22.3125 22.5625 20 21 C19.73356689 21.56984619 19.46713379 22.13969238 19.19262695 22.72680664 C16.98708629 26.93065292 14.00384722 30.6274877 11.1875 34.4375 C10.57068359 35.28376953 9.95386719 36.13003906 9.31835938 37.00195312 C6.12545412 41.33493932 2.94863386 45.33717201 -1 49 C-2.3046875 46.4296875 -2.3046875 46.4296875 -3 43 C-1.46240913 40.3529318 -0.09374926 38.39702917 1.875 36.125 C2.36097656 35.53203125 2.84695313 34.9390625 3.34765625 34.328125 C4.54688597 32.87023789 5.77112073 31.43298378 7 30 C4.74259377 27.66475218 2.7194239 25.81294927 0 24 C-2.09291157 24.08571661 -2.09291157 24.08571661 -4 25 C-4.66 25.99 -5.32 26.98 -6 28 C-6.99 27.67 -7.98 27.34 -9 27 C-9.02696365 25.20841511 -9.04637917 23.41671527 -9.0625 21.625 C-9.07410156 20.62726563 -9.08570313 19.62953125 -9.09765625 18.6015625 C-9 16 -9 16 -8 14 C-5.01034358 14.59850402 -3.00221502 15.48912049 -0.546875 17.28515625 C0.38125 17.95708008 0.38125 17.95708008 1.328125 18.64257812 C1.96234375 19.11115234 2.5965625 19.57972656 3.25 20.0625 C3.8996875 20.53494141 4.549375 21.00738281 5.21875 21.49414062 C6.81653662 22.65723529 8.40881803 23.82788601 10 25 C10.845625 24.071875 11.69125 23.14375 12.5625 22.1875 C13.03816406 21.66542969 13.51382813 21.14335938 14.00390625 20.60546875 C14.33261719 20.07566406 14.66132812 19.54585937 15 19 C13.87014611 15.61043834 13.26130237 15.21425749 10.40234375 13.30078125 C9.68369141 12.81416016 8.96503906 12.32753906 8.22460938 11.82617188 C7.46986328 11.32666016 6.71511719 10.82714844 5.9375 10.3125 C5.17888672 9.80138672 4.42027344 9.29027344 3.63867188 8.76367188 C1.76375915 7.50193815 -0.1157962 6.24779821 -2 5 C-1.125 1.125 -1.125 1.125 0 0 Z " fill="#0F0F0F" transform="translate(521,83)"/>
<path d="M0 0 C1.05864258 0.03673828 1.05864258 0.03673828 2.13867188 0.07421875 C7.20666854 0.27898629 12.23077429 0.72046776 17.25 1.4375 C17.25 3.0875 17.25 4.7375 17.25 6.4375 C16.26 6.4375 15.27 6.4375 14.25 6.4375 C15.24 7.9225 15.24 7.9225 16.25 9.4375 C16.91568876 13.64062789 16.91155794 17.25820106 14.8125 21 C11.00204042 23.13757489 7.51103136 23.36176783 3.25 22.4375 C0.02122719 19.45088515 -1.65475917 16.64327763 -1.84765625 12.17578125 C-1.83605469 11.37527344 -1.82445312 10.57476562 -1.8125 9.75 C-1.80347656 8.94175781 -1.79445313 8.13351562 -1.78515625 7.30078125 C-1.77355469 6.68589844 -1.76195312 6.07101562 -1.75 5.4375 C-4.22266765 5.78194881 -4.22266765 5.78194881 -6.75 6.4375 C-8.01237731 8.96225462 -7.84856404 10.74950466 -7.8125 13.5625 C-7.79896484 14.92761719 -7.79896484 14.92761719 -7.78515625 16.3203125 C-7.77355469 17.01898438 -7.76195312 17.71765625 -7.75 18.4375 C-9.07 18.4375 -10.39 18.4375 -11.75 18.4375 C-12.63651923 15.77794231 -13.00102319 13.88586817 -13.125 11.125 C-13.17398438 10.38636719 -13.22296875 9.64773438 -13.2734375 8.88671875 C-11.6724366 1.39546825 -7.01677349 -0.47526594 0 0 Z " fill="#0F0F0F" transform="translate(646.75,378.5625)"/>
<path d="M0 0 C3.35761784 3.09254275 5.92631838 5.4905372 7 10 C6.87262946 13.63006044 6.69641449 16.05865233 4.51171875 19.01171875 C0.96837524 21.81663609 -2.78377985 22.91778531 -7.0625 24.25 C-7.87783203 24.518125 -8.69316406 24.78625 -9.53320312 25.0625 C-15.54834981 27 -15.54834981 27 -19 27 C-18.9175 26.113125 -18.835 25.22625 -18.75 24.3125 C-19.05666249 20.249222 -20.41888212 19.05041204 -23 16 C-24.07515991 12.92811455 -24.12715622 11.45564313 -23.25 8.3125 C-22 6 -22 6 -19 4 C-12.01408451 3.21126761 -12.01408451 3.21126761 -8.1875 6.1875 C-3 12.85714286 -3 12.85714286 -3 16 C-1.68 15.34 -0.36 14.68 1 14 C1.2954439 8.97745369 0.98514628 6.10457614 -2 2 C-1.34 1.34 -0.68 0.68 0 0 Z " fill="#0E0E0E" transform="translate(61,433)"/>
<path d="M0 0 C5.05401074 1.51198496 10.03269075 3.22642845 15 5 C14.625 6.9375 14.625 6.9375 14 9 C13.01 9.495 13.01 9.495 12 10 C12.05800781 10.59167969 12.11601563 11.18335938 12.17578125 11.79296875 C12.42491699 16.15640332 12.44240363 18.34309764 9.9375 22.0625 C6.25345351 24.492403 4.33463758 24.70930433 0 24 C-2.90717073 21.78136971 -3.83981643 20.48055071 -5 17 C-5.068991 14.93854893 -5.08467727 12.87498599 -5.0625 10.8125 C-5.05347656 9.72582031 -5.04445313 8.63914062 -5.03515625 7.51953125 C-5.02355469 6.68808594 -5.01195312 5.85664063 -5 5 C-7.47266765 5.34444881 -7.47266765 5.34444881 -10 6 C-11.14814997 8.29629994 -11.30769809 10.07698086 -11.5625 12.625 C-11.64628906 13.44226563 -11.73007812 14.25953125 -11.81640625 15.1015625 C-11.87699219 15.72804688 -11.93757812 16.35453125 -12 17 C-13.32 17 -14.64 17 -16 17 C-17.20793377 12.04747155 -16.97356936 8.71940499 -15 4 C-10.36319321 -1.42845673 -6.57856609 -1.72295778 0 0 Z " fill="#0D0D0D" transform="translate(637,438)"/>
<path d="M0 0 C3.64331077 1.61924923 6.20425519 3.40851039 8 7 C8 9.97 8 12.94 8 16 C1.73 16 -4.54 16 -11 16 C-8.98848737 22.77489892 -8.98848737 22.77489892 -6 24 C-3.95944995 24.07065617 -1.91665743 24.08421976 0.125 24.0625 C1.22070312 24.05347656 2.31640625 24.04445313 3.4453125 24.03515625 C4.28835938 24.02355469 5.13140625 24.01195312 6 24 C6 25.32 6 26.64 6 28 C0.10637599 29.96454134 -5.97988198 29.99233868 -11.5625 27.25 C-14.76615776 24.29277745 -15.81720098 22.3446274 -16.40625 18.01171875 C-16.6904931 7.93293215 -16.6904931 7.93293215 -13.125 3.75 C-9.12973844 -0.14875765 -5.49890588 -0.59218986 0 0 Z " fill="#0E0E0E" transform="translate(342,647)"/>
<path d="M0 0 C3.8026029 2.0050088 5.61790841 3.42686262 8 7 C8.43762929 12.4266032 8.36889008 15.50814656 5 20 C0.06085498 18.5702475 -4.29426462 16.40027945 -8.828125 14.0234375 C-10.90137743 12.85791097 -10.90137743 12.85791097 -13 13 C-13.4626052 16.9784047 -13.36873404 18.52281478 -10.875 21.75 C-7.93237978 24.05292017 -5.59593164 25.08011051 -2 26 C-2 27.32 -2 28.64 -2 30 C-8.73968146 29.11360198 -13.50218625 27.26083573 -18 22 C-19.24333968 18.26998095 -19.52293341 14.87412635 -19 11 C-14.87295056 2.90463379 -9.16221438 -1.80294022 0 0 Z " fill="#0D0D0D" transform="translate(217,619)"/>
<path d="M0 0 C1.32 0 2.64 0 4 0 C4.99 4.29 5.98 8.58 7 13 C9.13106215 13.21693046 9.13106215 13.21693046 10.75 11.5 C13.84361002 9.43759332 15.33437435 9.35312489 19 10 C22.17505792 11.4186429 24.06341975 13.10980068 26 16 C28.16072317 22.87018671 29.18931542 29.7837418 29 37 C26.525 37.495 26.525 37.495 24 38 C23.89453857 37.44014404 23.78907715 36.88028809 23.68041992 36.3034668 C23.19475423 33.76235217 22.69134943 31.22506895 22.1875 28.6875 C22.02185547 27.80642578 21.85621094 26.92535156 21.68554688 26.01757812 C21.51474609 25.17001953 21.34394531 24.32246094 21.16796875 23.44921875 C21.01610107 22.66893311 20.8642334 21.88864746 20.70776367 21.0847168 C19.88759637 18.66891529 18.99507741 17.56929682 17 16 C14.17640885 15.57646133 12.69298543 15.51426255 10.328125 17.171875 C8.42549061 19.79079528 8.87287207 21.45220632 9.25 24.625 C9.36730469 25.68460938 9.48460937 26.74421875 9.60546875 27.8359375 C9.80076172 29.40214844 9.80076172 29.40214844 10 31 C10.18871145 32.74986978 10.3763733 34.49985341 10.5625 36.25 C10.706875 37.4875 10.85125 38.725 11 40 C8.525 40.495 8.525 40.495 6 41 C3.97877284 32.8844667 2.32828224 24.7229153 0.8125 16.5 C0.63364258 15.54464355 0.45478516 14.58928711 0.27050781 13.60498047 C0.02252441 12.23817139 0.02252441 12.23817139 -0.23046875 10.84375 C-0.37895264 10.03099609 -0.52743652 9.21824219 -0.68041992 8.38085938 C-1.01618372 5.87943192 -1.12336414 3.52065886 -1 1 C-0.67 0.67 -0.34 0.34 0 0 Z " fill="#0E0E0E" transform="translate(381,631)"/>
<path d="M0 0 C0.77923828 0.19078125 1.55847656 0.3815625 2.36132812 0.578125 C4.26349248 1.0449138 6.16326009 1.52145136 8.0625 2 C7.7325 3.65 7.4025 5.3 7.0625 7 C5.64547487 6.85769192 4.2288904 6.71099254 2.8125 6.5625 C1.62914062 6.44068359 1.62914062 6.44068359 0.421875 6.31640625 C-1.9375 6 -1.9375 6 -3.91015625 5.47265625 C-6.35922739 4.9016782 -8.61235571 4.86757712 -11.125 4.875 C-12.00542969 4.87242187 -12.88585937 4.86984375 -13.79296875 4.8671875 C-15.91953191 4.76134967 -15.91953191 4.76134967 -16.9375 6 C-17.45945798 10.60473929 -17.45945798 10.60473929 -15.6862793 14.65356445 C-13.66511622 16.20971611 -12.19693677 16.65586052 -9.70703125 17.16796875 C-8.90458984 17.33876953 -8.10214844 17.50957031 -7.27539062 17.68554688 C-6.44201172 17.85119141 -5.60863281 18.01683594 -4.75 18.1875 C-3.90501953 18.36474609 -3.06003906 18.54199219 -2.18945312 18.72460938 C-0.10754843 19.15980979 1.97722533 19.58124454 4.0625 20 C3.5675 22.475 3.5675 22.475 3.0625 25 C-5.2764538 24.43695073 -13.286075 22.79263703 -21.4375 21 C-23.34789062 20.59007812 -23.34789062 20.59007812 -25.296875 20.171875 C-34.65601504 18.14074248 -34.65601504 18.14074248 -36.9375 17 C-36.9375 15.35 -36.9375 13.7 -36.9375 12 C-31.5871441 12.57021934 -26.25962148 13.20734361 -20.9375 14 C-21.2675 13.34 -21.5975 12.68 -21.9375 12 C-22.41594415 8.9173662 -22.48899629 6.07565238 -21.9375 3 C-15.72203068 -4.42824382 -8.32374638 -2.11125015 0 0 Z " fill="#0D0D0D" transform="translate(651.9375,408)"/>
<path d="M0 0 C0.99 0.66 1.98 1.32 3 2 C2.67 3.65 2.34 5.3 2 7 C2.5775 7.0825 3.155 7.165 3.75 7.25 C6.79392875 8.26464292 8.05162197 9.44695292 10 12 C11.20866058 16.07922946 11.47741076 18.07030537 9.515625 21.890625 C6.38283155 25.76283554 3.00869185 27.88449293 -1.25 30.375 C-1.99507812 30.82488281 -2.74015625 31.27476562 -3.5078125 31.73828125 C-5.33155368 32.83720222 -7.16484568 33.92024641 -9 35 C-9.99 34.34 -10.98 33.68 -12 33 C-11.40082381 29.35261095 -11.09669185 29.07191456 -7.875 26.67578125 C-6.59084351 25.87583666 -5.29879422 25.08845285 -4 24.3125 C-2.70788931 23.51764844 -1.41620052 22.72211049 -0.125 21.92578125 C0.90625 21.29027344 1.9375 20.65476562 3 20 C4.41577477 18.81575674 4.41577477 18.81575674 4.0625 15.4375 C4.0315625 13.7359375 4.0315625 13.7359375 4 12 C0.88159362 10.44079681 -1.54823632 10.71205679 -5 11 C-7.42417068 12.27779239 -9.48084929 13.49454772 -11.6875 15.0625 C-17.31872436 19.01939981 -17.31872436 19.01939981 -20.33203125 18.93359375 C-22 18 -22 18 -23 15 C-22.51644043 14.68772461 -22.03288086 14.37544922 -21.53466797 14.05371094 C-19.31448783 12.61959027 -17.09474126 11.18479986 -14.875 9.75 C-14.11445312 9.25886719 -13.35390625 8.76773438 -12.5703125 8.26171875 C-8.35881231 5.53876604 -4.16461985 2.79415389 0 0 Z " fill="#101010" transform="translate(96,510)"/>
<path d="M0 0 C4.0296993 4.96224048 6.13781399 10.78918075 8.625 16.625 C9.12773438 17.76324219 9.63046875 18.90148437 10.1484375 20.07421875 C13.3254895 27.51296147 16.48287742 35.05707528 14.0625 43.125 C13.5365625 44.053125 13.5365625 44.053125 13 45 C11.68 44.67 10.36 44.34 9 44 C9.02320313 43.24074219 9.04640625 42.48148438 9.0703125 41.69921875 C9.08835937 40.70535156 9.10640625 39.71148438 9.125 38.6875 C9.14820313 37.70136719 9.17140625 36.71523438 9.1953125 35.69921875 C9.20682639 32.77593473 9.20682639 32.77593473 7 30 C4.41373766 28.5687341 4.41373766 28.5687341 1.3359375 27.30078125 C0.21445312 26.81416016 -0.90703125 26.32753906 -2.0625 25.82617188 C-3.238125 25.32666016 -4.41375 24.82714844 -5.625 24.3125 C-6.80835938 23.80138672 -7.99171875 23.29027344 -9.2109375 22.76367188 C-12.13728654 21.50109386 -15.06696021 20.24693741 -18 19 C-17.1875 17.0625 -17.1875 17.0625 -16 15 C-13 14 -13 14 -11.00708008 14.71264648 C-10.26868896 15.09493408 -9.53029785 15.47722168 -8.76953125 15.87109375 C-7.96708984 16.28037109 -7.16464844 16.68964844 -6.33789062 17.11132812 C-5.08782227 17.7677832 -5.08782227 17.7677832 -3.8125 18.4375 C-2.5450293 19.0881543 -2.5450293 19.0881543 -1.25195312 19.75195312 C0.83678771 20.82582553 2.92030626 21.90873822 5 23 C4.41089844 21.81921875 3.82179688 20.6384375 3.21484375 19.421875 C2.45510823 17.86488617 1.69602765 16.30757764 0.9375 14.75 C0.54755859 13.97269531 0.15761719 13.19539062 -0.24414062 12.39453125 C-0.60830078 11.64042969 -0.97246094 10.88632812 -1.34765625 10.109375 C-1.68804932 9.41811523 -2.02844238 8.72685547 -2.37915039 8.01464844 C-3.13232692 5.57060096 -2.92186871 4.36478021 -2 2 C-1.34 1.34 -0.68 0.68 0 0 Z " fill="#0F0F0F" transform="translate(554,561)"/>
<path d="M0 0 C5.23936268 1.99396496 9.91204164 4.69296869 14.75 7.5 C15.62527344 7.99886719 16.50054688 8.49773437 17.40234375 9.01171875 C18.23378906 9.49253906 19.06523438 9.97335937 19.921875 10.46875 C20.68081055 10.90638672 21.43974609 11.34402344 22.22167969 11.79492188 C24 13 24 13 25 15 C24.34 15.99 23.68 16.98 23 18 C22.34 18 21.68 18 21 18 C20.91363281 18.60328125 20.82726562 19.2065625 20.73828125 19.828125 C20.03175501 23.84689813 19.5048266 26.40863169 16.8125 29.5625 C13.01681066 31.502519 11.25122554 31.68568154 7 31 C3.17688614 29.25196859 -0.39850028 27.16195445 -4 25 C-5.39416465 24.20539838 -6.78970972 23.41320628 -8.1875 22.625 C-9.115625 22.08875 -10.04375 21.5525 -11 21 C-10.34 19.35 -9.68 17.7 -9 16 C-7.38931641 16.86625 -7.38931641 16.86625 -5.74609375 17.75 C-4.31028702 18.50074862 -2.87406688 19.25070697 -1.4375 20 C-0.73302734 20.3815625 -0.02855469 20.763125 0.69726562 21.15625 C5.30370209 23.53376559 8.6899592 24.54672235 14 24 C15.33745112 22.84849423 15.33745112 22.84849423 15.625 19.8125 C15.40556047 16.05122026 15.40556047 16.05122026 13.2734375 14.37890625 C10.90010993 12.80892152 8.4816911 11.39188838 6 10 C4.47494207 9.04840392 2.95372394 8.09060952 1.4375 7.125 C0.29253872 6.41525792 -0.85294837 5.70635877 -2 5 C-1.34 3.35 -0.68 1.7 0 0 Z " fill="#0E0E0E" transform="translate(599,499)"/>
<path d="M0 0 C1.32 0.33 2.64 0.66 4 1 C3.34 3.97 2.68 6.94 2 10 C2.68707031 10.30292969 3.37414063 10.60585937 4.08203125 10.91796875 C11.41274443 14.32638332 11.41274443 14.32638332 14.125 17.4375 C15.14152222 20.41445793 15.06020158 22.87381803 15 26 C16.68029297 25.566875 16.68029297 25.566875 18.39453125 25.125 C19.86713989 24.74981309 21.33979878 24.37482335 22.8125 24 C23.55048828 23.80921875 24.28847656 23.6184375 25.04882812 23.421875 C28.10535341 22.64737086 30.83373478 22 34 22 C34 22.99 34 23.98 34 25 C31.93847611 25.64894237 29.87573742 26.2940264 27.8125 26.9375 C26.66394531 27.29714844 25.51539063 27.65679687 24.33203125 28.02734375 C19.93603478 29.31058305 15.89566257 30.1485937 11.3125 30.1875 C10.54550781 30.20167969 9.77851562 30.21585938 8.98828125 30.23046875 C7 30 7 30 5 28 C5.3557806 24.62008426 6.35715799 21.95711562 8 19 C4.67485327 17.86642725 1.4120992 16.8530248 -2 16 C-3.98 19.96 -5.96 23.92 -8 28 C-9.32 27.34 -10.64 26.68 -12 26 C-10.75237881 23.16559845 -9.50197335 20.33247871 -8.25 17.5 C-7.90195312 16.70851562 -7.55390625 15.91703125 -7.1953125 15.1015625 C-4.93340792 9.99133364 -2.53577842 4.98017745 0 0 Z " fill="#0D0D0D" transform="translate(56,211)"/>
<path d="M0 0 C1.32 0.33 2.64 0.66 4 1 C4 6.35032278 1.34011543 9.00992671 -1.80078125 13.046875 C-3.88508244 15.86564423 -4.97290992 17.78067457 -5.40625 21.2890625 C-5.2531918 24.14314446 -5.2531918 24.14314446 -3 26 C0.07672783 26.24613823 1.27607265 26.27187269 4 25 C8.45464827 20.56166913 11.84530206 15.41361745 15 10 C16.65 10.66 18.3 11.32 20 12 C18.00785166 17.42376531 14.9242251 21.65752109 11.5625 26.3125 C10.97662109 27.14845703 10.39074219 27.98441406 9.78710938 28.84570312 C9.21927734 29.63525391 8.65144531 30.42480469 8.06640625 31.23828125 C7.55021729 31.96055908 7.03402832 32.68283691 6.50219727 33.42700195 C6.00647217 33.94609131 5.51074707 34.46518066 5 35 C2 35 2 35 0 34 C0.33 33.01 0.66 32.02 1 31 C0.39671875 30.91363281 -0.2065625 30.82726562 -0.828125 30.73828125 C-4.77697924 30.0440472 -7.4306119 29.44737636 -10.625 26.9375 C-12.58611865 22.74783744 -12.13912874 19.4320912 -11 15 C-9.45378241 12.04687282 -7.52615478 9.52680611 -5.4375 6.9375 C-4.91736328 6.26267578 -4.39722656 5.58785156 -3.86132812 4.89257812 C-2.59066319 3.24887394 -1.29759536 1.62252862 0 0 Z " fill="#0D0D0D" transform="translate(165,589)"/>
<path d="M0 0 C6.90147505 5.06108171 9.03022441 14.00913733 11 22 C11 22.99 11 23.98 11 25 C9.02 25.33 7.04 25.66 5 26 C4.85900879 25.4652002 4.71801758 24.93040039 4.57275391 24.37939453 C3.93052564 21.95933537 3.27790092 19.54220059 2.625 17.125 C2.40328125 16.28324219 2.1815625 15.44148437 1.953125 14.57421875 C1.73398437 13.76855469 1.51484375 12.96289062 1.2890625 12.1328125 C1.09006348 11.38918457 0.89106445 10.64555664 0.68603516 9.87939453 C0.07413968 7.79295945 0.07413968 7.79295945 -2 6 C-5.5 5.58333333 -5.5 5.58333333 -9 6 C-11.2678224 9.4017336 -11.08752892 10.75133397 -10.4921875 14.671875 C-9.76275433 18.12220966 -8.71984563 21.45195375 -7.62109375 24.80078125 C-7 27 -7 27 -7 30 C-8.65 30.33 -10.3 30.66 -12 31 C-14.17842628 26.18256588 -15.79636752 21.51168147 -17.125 16.375 C-17.45757812 15.10398437 -17.79015625 13.83296875 -18.1328125 12.5234375 C-18.83040873 9.68906003 -19.46157556 6.86793425 -20 4 C-18.35 4 -16.7 4 -15 4 C-15 4.66 -15 5.32 -15 6 C-14.34 6 -13.68 6 -13 6 C-12.731875 5.38125 -12.46375 4.7625 -12.1875 4.125 C-9.50278725 -0.67922281 -4.97668505 -0.93495453 0 0 Z " fill="#0D0D0D" transform="translate(433,634)"/>
<path d="M0 0 C0.625 1.875 0.625 1.875 1 4 C0.34 4.66 -0.32 5.32 -1 6 C-0.21625 6.4125 0.5675 6.825 1.375 7.25 C4.15311242 9.10207495 5.01599812 9.86908491 6 13 C6.61068588 17.01307864 6.30322829 18.55022129 4.01171875 21.94921875 C0.76576682 25.67107442 -3.08827222 27.20719512 -7.625 28.9375 C-8.388125 29.25267578 -9.15125 29.56785156 -9.9375 29.89257812 C-15.58721301 32.13759566 -15.58721301 32.13759566 -19 31 C-19 29.68 -19 28.36 -19 27 C-16.39653203 25.85255669 -13.79226795 24.70698532 -11.1875 23.5625 C-10.08051758 23.07426758 -10.08051758 23.07426758 -8.95117188 22.57617188 C-8.23896484 22.26357422 -7.52675781 21.95097656 -6.79296875 21.62890625 C-6.1383667 21.34088135 -5.48376465 21.05285645 -4.80932617 20.75610352 C-3.23465413 20.09806016 -1.61905892 19.53968631 0 19 C0.31991247 15.48096286 0.37169764 13.57984832 -1.5625 10.5625 C-4.2686464 8.82779077 -5.6693177 8.66847075 -8.796875 9.30078125 C-12.77001125 10.56175889 -16.54408585 12.30070949 -20.328125 14.0390625 C-23 15 -23 15 -26 14 C-26.6875 11.9375 -26.6875 11.9375 -27 10 C-23.06612462 8.32468327 -19.12733737 6.66124197 -15.1875 5 C-14.06794922 4.52304687 -12.94839844 4.04609375 -11.79492188 3.5546875 C-10.72177734 3.10351562 -9.64863281 2.65234375 -8.54296875 2.1875 C-7.0583313 1.55908203 -7.0583313 1.55908203 -5.54370117 0.91796875 C-3 0 -3 0 0 0 Z " fill="#0B0B0B" transform="translate(73,459)"/>
<path d="M0 0 C0 1.32 0 2.64 0 4 C-0.99 4.33 -1.98 4.66 -3 5 C-2.154375 5.804375 -1.30875 6.60875 -0.4375 7.4375 C1.86210159 10.2035922 2.38935551 12.03315938 2.1875 15.625 C1.86345254 19.11003873 1.13119245 19.88946004 -1.60546875 22.1953125 C-5.37643709 24.20013111 -8.2684518 24.78556178 -12.5 25.25 C-14.40265625 25.47429687 -14.40265625 25.47429687 -16.34375 25.703125 C-19.58576337 25.9663654 -22.74983258 26.06018829 -26 26 C-26 24.35 -26 22.7 -26 21 C-25.16021606 20.87939209 -25.16021606 20.87939209 -24.3034668 20.75634766 C-21.76359885 20.38707514 -19.22560785 20.00617432 -16.6875 19.625 C-15.80642578 19.49867188 -14.92535156 19.37234375 -14.01757812 19.2421875 C-12.74624023 19.04882812 -12.74624023 19.04882812 -11.44921875 18.8515625 C-10.66893311 18.73635254 -9.88864746 18.62114258 -9.0847168 18.50244141 C-6.71317843 18.05745217 -6.71317843 18.05745217 -4 16 C-3.41654524 13.04253508 -3.41654524 13.04253508 -4 10 C-5.42048316 7.93243871 -5.42048316 7.93243871 -8 7 C-14.66984406 6.52358257 -21.35445535 7.37974917 -28 8 C-28.042721 6.33388095 -28.04063832 4.66617115 -28 3 C-25.93372675 0.93372675 -21.90943611 1.26181545 -19.0625 0.9375 C-18.29429932 0.84807129 -17.52609863 0.75864258 -16.73461914 0.66650391 C-11.12317833 0.04661828 -5.64861616 -0.17932115 0 0 Z " fill="#0B0B0B" transform="translate(52,358)"/>
<path d="M0 0 C1.76252485 2.39358106 2.98705229 5.09442928 4.3125 7.75 C4.69728516 8.46671875 5.08207031 9.1834375 5.47851562 9.921875 C8.16662748 15.24913492 8.16662748 15.24913492 7.375 18.81640625 C4.35408167 23.61383053 1.68140701 27.54322897 -4 29 C-5.32 29 -6.64 29 -8 29 C-8.33 27.02 -8.66 25.04 -9 23 C-5.535 20.525 -5.535 20.525 -2 18 C-2.33 17.34 -2.66 16.68 -3 16 C-4.051875 16.2165625 -4.051875 16.2165625 -5.125 16.4375 C-8.07556141 17.01478375 -11.03270151 17.51695141 -14 18 C-14.33 16.68 -14.66 15.36 -15 14 C-12.03 12.35 -9.06 10.7 -6 9 C-6.66 7.68 -7.32 6.36 -8 5 C-7.875 2.875 -7.875 2.875 -7 1 C-4.09342573 -1.03460199 -3.47133392 -1.15711131 0 0 Z " fill="#F5F5F5" transform="translate(208,70)"/>
<path d="M0 0 C9.92907332 -0.27538262 19.20460071 0.46346678 29 2 C29 3.32 29 4.64 29 6 C25.04 6 21.08 6 17 6 C16.86722656 7.79566406 16.73445313 9.59132813 16.59765625 11.44140625 C16.41939366 13.81511339 16.24100143 16.1888108 16.0625 18.5625 C15.93198242 20.33463867 15.93198242 20.33463867 15.79882812 22.14257812 C15.3710939 27.79817509 14.91266535 33.40067474 14 39 C12.35 39 10.7 39 9 39 C8.86147291 31.20688938 9.26366508 23.56889283 10 15.8125 C10.09539062 14.76513672 10.19078125 13.71777344 10.2890625 12.63867188 C10.5216315 10.09204131 10.76017891 7.54595786 11 5 C7.37 4.67 3.74 4.34 0 4 C0 2.68 0 1.36 0 0 Z " fill="#0D0D0D" transform="translate(299,635)"/>
<path d="M0 0 C0.66 0.33 1.32 0.66 2 1 C1.67 2.32 1.34 3.64 1 5 C-0.11375 4.95875 -1.2275 4.9175 -2.375 4.875 C-6.04366025 4.58878141 -6.04366025 4.58878141 -8 7 C-8.6425235 9.06874034 -8.6425235 9.06874034 -9 11 C-6.525 11.99 -6.525 11.99 -4 13 C-4 14.32 -4 15.64 -4 17 C-6.31 17 -8.62 17 -11 17 C-11.1546875 18.546875 -11.1546875 18.546875 -11.3125 20.125 C-12.09464389 26.49717224 -13.60215136 32.74045136 -15 39 C-16.98 39 -18.96 39 -21 39 C-20.20363476 33.81943455 -19.09064396 28.73469093 -17.9375 23.625 C-17.75123047 22.79355469 -17.56496094 21.96210937 -17.37304688 21.10546875 C-16.91681802 19.06998618 -16.45860975 17.03494745 -16 15 C-16.99 15 -17.98 15 -19 15 C-19 13.68 -19 12.36 -19 11 C-17.68 11 -16.36 11 -15 11 C-14.938125 10.29875 -14.87625 9.5975 -14.8125 8.875 C-12.46786369 0.5785946 -8.02304353 -1.2452268 0 0 Z " fill="#0E0E0E" transform="translate(292,630)"/>
<path d="M0 0 C2.875 2.0625 2.875 2.0625 5 5 C5.71429314 9.36512474 5.34615939 11.3793004 3.1875 15.25 C2.465625 16.1575 1.74375 17.065 1 18 C0.54625 18.61875 0.0925 19.2375 -0.375 19.875 C-2.9891143 21.68477144 -4.91757595 21.44034629 -8 21 C-10.375 19.625 -10.375 19.625 -12 17 C-12.70061662 12.33184657 -12.58720496 8.34218278 -10.6875 4 C-7.43568932 0.14600215 -4.90321775 -0.68645048 0 0 Z " fill="#F5F5F5" transform="translate(257,639)"/>
<path d="M0 0 C6.9171123 4.78877005 6.9171123 4.78877005 8 9 C8.05543441 12.89624725 7.87404639 15.96409317 5.3125 19 C2.21285954 20.34038506 0.34840698 20.54667869 -3 20 C-7.20728249 16.4620579 -9.84413649 13.63656689 -10.375 8.0625 C-10.28652799 5.0599813 -10.0685879 4.10551985 -8.375 1.5 C-5.21662863 -0.49476086 -3.68113179 -0.66260372 0 0 Z " fill="#F8F8F8" transform="translate(504,609)"/>
<path d="M0 0 C3.47761768 1.179906 5.43388264 2.31622084 7.62109375 5.3046875 C9.29114173 8.8823014 9.13986311 12.35559249 8.5 16.1875 C7.5 18.75 7.5 18.75 5.5 20.1875 C2.25184925 20.71139528 0.56779687 20.9589343 -2.5 20.1875 C-6.32009366 17.01763505 -7.73835335 14.48935501 -8.625 9.625 C-8.83218495 6.02363808 -8.55070813 5.26673145 -6.5 2.0625 C-3.5 0.1875 -3.5 0.1875 0 0 Z " fill="#FBFBFB" transform="translate(459.5,627.8125)"/>
<path d="M0 0 C3.125 1.625 3.125 1.625 5 4 C5.5625 7 5.5625 7 5 10 C2.30918159 13.72574857 -0.59622774 14.94309466 -5 16 C-9.13266121 16.59038017 -10.48034301 16.36486554 -13.9375 13.9375 C-16 11 -16 11 -16.125 7.4375 C-13.52027876 -0.52137046 -7.51495045 -1.20731991 0 0 Z " fill="#F5F5F5" transform="translate(47,395)"/>
<path d="M0 0 C5.78915214 0.86709768 10.69694233 3.30353619 15.546875 6.53125 C15.876875 7.19125 16.206875 7.85125 16.546875 8.53125 C12.46914295 9.59574329 8.38409323 10.62883729 4.296875 11.65625 C3.13800781 11.95917969 1.97914063 12.26210938 0.78515625 12.57421875 C-0.32988281 12.85136719 -1.44492188 13.12851562 -2.59375 13.4140625 C-4.13337402 13.80682373 -4.13337402 13.80682373 -5.70410156 14.20751953 C-8.76325082 14.56777103 -9.96092729 14.28669266 -12.453125 12.53125 C-13.87354321 9.69041359 -13.76764772 7.67647722 -13.453125 4.53125 C-9.62276602 -0.4909784 -5.95142315 -0.1615771 0 0 Z " fill="#F8F8F8" transform="translate(255.453125,33.46875)"/>
<path d="M0 0 C0.33 1.65 0.66 3.3 1 5 C0.31292969 5.06058594 -0.37414062 5.12117187 -1.08203125 5.18359375 C-2.43361328 5.30927734 -2.43361328 5.30927734 -3.8125 5.4375 C-5.15248047 5.55931641 -5.15248047 5.55931641 -6.51953125 5.68359375 C-9.12743559 5.93489767 -9.12743559 5.93489767 -12 7 C-13.72085133 12.162554 -13.81611945 17.00050735 -11.75 22.0625 C-7.25547631 25.22909624 -2.32279191 24.37661264 3 24 C3 25.32 3 26.64 3 28 C-1.14327024 30.0088583 -4.41538356 30.40215934 -9 30 C-12.65812242 28.70889797 -14.6702866 27.33839007 -17.375 24.5625 C-19.75490869 19.34500787 -20.00329395 14.63504195 -19 9 C-16.98067353 5.11564776 -14.33192169 2.80616313 -10.625 0.5625 C-7.01022327 -0.21209501 -3.69502943 -0.12525523 0 0 Z " fill="#101010" transform="translate(375,645)"/>
<path d="M0 0 C1.98 0 3.96 0 6 0 C4.125 4.75 4.125 4.75 3 7 C3.804375 7.28875 4.60875 7.5775 5.4375 7.875 C8 9 8 9 9 11 C8.67 11.66 8.34 12.32 8 13 C4.62537285 12.45276317 2.91765 11.9451 0 10 C-0.226875 10.66 -0.45375 11.32 -0.6875 12 C-1.82692117 14.60439125 -3.0559097 16.65303207 -4.625 19 C-6.21810111 21.49805796 -6.98511127 22.91438981 -7.5 25.875 C-7.16509644 28.38312962 -7.16509644 28.38312962 -4 30 C-4.33 31.32 -4.66 32.64 -5 34 C-8.03002206 33.66333088 -9.84001182 33.1094656 -12.375 31.375 C-14 29 -14 29 -13.85546875 25.81640625 C-12.87833609 21.45723453 -11.24788472 18.33333516 -8.9375 14.5625 C-8.56044922 13.92634766 -8.18339844 13.29019531 -7.79492188 12.63476562 C-6.87359498 11.08367098 -5.93823407 9.54092657 -5 8 C-5.66 7.34 -6.32 6.68 -7 6 C-6.625 3.875 -6.625 3.875 -6 2 C-4.35 2.33 -2.7 2.66 -1 3 C-0.67 2.01 -0.34 1.02 0 0 Z " fill="#0F0F0F" transform="translate(195,603)"/>
<path d="M0 0 C3.43329344 0.79020246 4.94338158 2.69125897 6.96875 5.453125 C7.78125 8.265625 7.78125 8.265625 7.96875 10.453125 C6.64875 10.783125 5.32875 11.113125 3.96875 11.453125 C2.97875 9.473125 1.98875 7.493125 0.96875 5.453125 C-0.68125 5.783125 -2.33125 6.113125 -4.03125 6.453125 C-3.83595703 7.77376953 -3.83595703 7.77376953 -3.63671875 9.12109375 C-2.51187487 18.59290995 -2.51187487 18.59290995 -5.03125 22.765625 C-8.77801227 24.87317878 -10.79161029 25.13449567 -15.03125 24.453125 C-19.31701423 21.92062796 -21.14940075 19.00918108 -23.03125 14.453125 C-23.03125 13.793125 -23.03125 13.133125 -23.03125 12.453125 C-21.38125 12.123125 -19.73125 11.793125 -18.03125 11.453125 C-17.66 12.5875 -17.28875 13.721875 -16.90625 14.890625 C-16.16487127 16.8345381 -16.16487127 16.8345381 -15.03125 18.453125 C-11.94755113 19.51062057 -11.94755113 19.51062057 -9.03125 19.453125 C-8.76192479 14.80259628 -8.76192479 14.80259628 -10.03125 10.453125 C-10.41205215 6.94974519 -10.43370078 5.09033874 -8.53125 2.078125 C-5.65683934 0.20975807 -3.42315904 -0.17882174 0 0 Z " fill="#0E0E0E" transform="translate(115.03125,538.546875)"/>
<path d="M0 0 C1.65 0.66 3.3 1.32 5 2 C5 2.66 5 3.32 5 4 C4.01 4.66 3.02 5.32 2 6 C2.33 6.763125 2.66 7.52625 3 8.3125 C4 11 4 11 4 14 C0 14 0 14 -1.75 12.5 C-2.1625 12.005 -2.575 11.51 -3 11 C-5.03982797 12.71034034 -7.05486594 14.44007326 -9.0625 16.1875 C-9.64322266 16.67025391 -10.22394531 17.15300781 -10.82226562 17.65039062 C-12.71185935 19.25277981 -12.71185935 19.25277981 -15 22 C-15.00788045 24.67090277 -15.00788045 24.67090277 -14 27 C-14 27.99 -14 28.98 -14 30 C-18 30 -18 30 -20.3125 27.8125 C-22 25 -22 25 -22 22.5 C-19.7217289 16.80432225 -15.29812564 13.45089124 -10.609375 9.74609375 C-8.54817777 7.90556872 -8.54817777 7.90556872 -9 4 C-9 3.34 -9 2.68 -9 2 C-6.10765685 1.17361624 -4.11257569 1 -1 1 C-0.67 0.67 -0.34 0.34 0 0 Z " fill="#0C0C0C" transform="translate(133,551)"/>
<path d="M0 0 C4.17197522 3.32414927 6.71897984 6.46716279 7.6875 11.75 C6.88517436 15.54281212 6.23512995 16.87162503 3 19 C-0.84278709 19.65409142 -2.44864639 19.35086139 -5.75 17.25 C-9.11553202 13.88446798 -10.10810801 11.64685215 -10.375 6.9375 C-10 3 -10 3 -8.375 1 C-5.08152838 -0.38672489 -3.55220028 -0.76616084 0 0 Z " fill="#F9F9F9" transform="translate(532,591)"/>
<path d="M0 0 C1.32 0 2.64 0 4 0 C4 2.64 4 5.28 4 8 C10.6 8 17.2 8 24 8 C24 6.35 24 4.7 24 3 C25.65 3 27.3 3 29 3 C29.43898196 6.77524481 29.24783531 8.59284199 27.25 11.875 C20.37381943 16.37096422 10.81963708 14.04261828 3 13 C3 14.32 3 15.64 3 17 C1.68 17 0.36 17 -1 17 C-1 15.35 -1 13.7 -1 12 C-2.65 12 -4.3 12 -6 12 C-6.33 10.35 -6.66 8.7 -7 7 C-4.69 7 -2.38 7 0 7 C0 4.69 0 2.38 0 0 Z " fill="#0C0C0C" transform="translate(638,356)"/>
<path d="M0 0 C0 1.65 0 3.3 0 5 C2.475 5.495 2.475 5.495 5 6 C4.23065962 9.79979088 2.71219779 13.16170988 1.125 16.6875 C0.35542969 18.42580078 0.35542969 18.42580078 -0.4296875 20.19921875 C-2 23 -2 23 -5 24 C-9.73707133 24.38828454 -12.11290594 24.41935355 -16.4375 22.375 C-19.45597084 19.57739288 -19.81631437 18.04108383 -20 14 C-19.00419922 14.06960937 -19.00419922 14.06960937 -17.98828125 14.140625 C-13.8178569 14.3110949 -10.80970507 14.38798368 -7 12.5625 C-4.54679298 9.41932851 -4.03685138 6.81885927 -3.45703125 2.92578125 C-3.30621094 2.29027344 -3.15539062 1.65476562 -3 1 C-1 0 -1 0 0 0 Z " fill="#F3F3F3" transform="translate(479,63)"/>
<path d="M0 0 C2.00720923 0.28674418 4.0085944 0.61866701 6 1 C5.01 2.32 4.02 3.64 3 5 C4.20381448 7.49361571 5.45428722 9.68143083 7 12 C5.02 12.99 5.02 12.99 3 14 C2.01 13.01 1.02 12.02 0 11 C-3.77611453 12.51726498 -5.7694508 14.74151707 -8.3125 17.875 C-9.03050781 18.73867188 -9.74851563 19.60234375 -10.48828125 20.4921875 C-12.2408049 22.82768106 -12.2408049 22.82768106 -11.765625 25.1796875 C-11.51296875 25.78039062 -11.2603125 26.38109375 -11 27 C-10.66666667 28.33333333 -10.33333333 29.66666667 -10 31 C-10.99 31.33 -11.98 31.66 -13 32 C-15.6875 30.5 -15.6875 30.5 -18 28 C-18.52865422 23.78572813 -18.4264315 21.67495971 -16.13671875 18.05078125 C-14.92435547 16.69533203 -14.92435547 16.69533203 -13.6875 15.3125 C-12.88699219 14.40113281 -12.08648437 13.48976563 -11.26171875 12.55078125 C-10.14216797 11.28814453 -10.14216797 11.28814453 -9 10 C-7.9841363 8.67871323 -6.97708713 7.35021425 -6 6 C-6.66 4.68 -7.32 3.36 -8 2 C-5.50935112 1.31292445 -3.62113708 1 -1 1 C-0.67 0.67 -0.34 0.34 0 0 Z " fill="#0A0A0A" transform="translate(155,574)"/>
<path d="M0 0 C5.87040564 0.62281956 10.43737016 5.66614952 14 10 C14.84871586 13.10277293 14.43456206 15.14950656 13 18 C10.5 20.9375 10.5 20.9375 8 23 C7.67 23.33 7.34 23.66 7 24 C5.35 24 3.7 24 2 24 C2 20.37 2 16.74 2 13 C-2.455 11.02 -2.455 11.02 -7 9 C-1.125 1.125 -1.125 1.125 0 0 Z " fill="#F5F5F5" transform="translate(110,140)"/>
<path d="M0 0 C2.31205618 4.76174834 4.60853201 9.53057629 6.89086914 14.30664062 C7.66950171 15.93042782 8.4523579 17.55219671 9.23950195 19.171875 C10.37005503 21.50002972 11.48523271 23.8350142 12.59765625 26.171875 C12.952798 26.89493835 13.30793976 27.61800171 13.67384338 28.36297607 C15.41313459 32.05645857 16.28210088 34.10447974 15 38 C13.02 38.495 13.02 38.495 11 39 C8.87526585 34.39494838 6.75756677 29.7867513 4.64624023 25.17553711 C3.92744938 23.60825244 3.20676497 22.04183472 2.48413086 20.47631836 C1.44402549 18.2221602 0.41083483 15.9649422 -0.62109375 13.70703125 C-0.94403915 13.01100296 -1.26698456 12.31497467 -1.59971619 11.59785461 C-3.19544806 8.08836854 -4.45247824 4.82617279 -5 1 C-3 0 -3 0 0 0 Z " fill="#0D0D0D" transform="translate(473,604)"/>
<path d="M0 0 C0.66 1.32 1.32 2.64 2 4 C-14.11328125 12.7890625 -14.11328125 12.7890625 -17.04541016 14.37207031 C-19.0637009 15.48411482 -21.06300214 16.63115219 -23.04443359 17.80761719 C-24.0133252 18.37383789 -24.9822168 18.94005859 -25.98046875 19.5234375 C-26.84953857 20.04599121 -27.7186084 20.56854492 -28.61401367 21.10693359 C-31 22 -31 22 -33.3137207 21.15478516 C-33.87019287 20.77370605 -34.42666504 20.39262695 -35 20 C-35 19.01 -35 18.02 -35 17 C-30.50186562 14.57099983 -25.9994729 12.15016172 -21.49291992 9.73681641 C-19.96014238 8.91450877 -18.42855702 8.08997492 -16.89819336 7.26318359 C-14.69954343 6.07584136 -12.49674456 4.89654481 -10.29296875 3.71875 C-9.60849167 3.34689575 -8.92401459 2.9750415 -8.21879578 2.59191895 C-3.34161512 0 -3.34161512 0 0 0 Z " fill="#0C0C0C" transform="translate(101,494)"/>
<path d="M0 0 C4.17872503 2.98480359 7.82091862 6.29005728 10 11 C9.8125 14.9375 9.8125 14.9375 9 18 C5.83810841 19.15861276 3.33036962 19.65007215 0 19 C-3.57241004 15.72797278 -6.29137117 12.00211116 -9 8 C-6.12551595 5.08738017 -3.35153096 2.35848475 0 0 Z " fill="#F9F9F9" transform="translate(153,101)"/>
<path d="M0 0 C0 1.65 0 3.3 0 5 C-13.00930892 6.05736038 -25.95415744 6.11145896 -39 6 C-39 4.35 -39 2.7 -39 1 C-25.99069108 -0.05736038 -13.04584256 -0.11145896 0 0 Z " fill="#090909" transform="translate(62,344)"/>
<path d="M0 0 C3.72975427 1.15283314 5.35163561 1.75988138 7.4375 5.0625 C7.37707505 8.50672213 7.03843625 10.96667507 5.375 14 C2.17524742 15.75470303 -1.0619894 15.689352 -4.5625 15.0625 C-7.0625 13.4375 -7.0625 13.4375 -8.5625 11.0625 C-9.125 8.125 -9.125 8.125 -8.5625 5.0625 C-5.88937913 1.25532785 -4.71546409 0.08272744 0 0 Z " fill="#0B0B0B" transform="translate(649.5625,315.9375)"/>
<path d="M0 0 C2.4375 1.5625 2.4375 1.5625 4 4 C4.56288002 7.94016013 4.60396028 10.05782196 2.4375 13.4375 C-0.94217804 15.60396028 -3.05983987 15.56288002 -7 15 C-9.4375 13.4375 -9.4375 13.4375 -11 11 C-11.56288002 7.05983987 -11.60396028 4.94217804 -9.4375 1.5625 C-6.05782196 -0.60396028 -3.94016013 -0.56288002 0 0 Z " fill="#060606" transform="translate(44,313)"/>
<path d="M0 0 C3.86428195 0.77285639 7.30256981 1.71019877 11 3 C11.12117188 3.68707031 11.24234375 4.37414063 11.3671875 5.08203125 C11.53476562 5.98308594 11.70234375 6.88414063 11.875 7.8125 C12.11863281 9.15248047 12.11863281 9.15248047 12.3671875 10.51953125 C12.91188449 13.22727846 12.91188449 13.22727846 15 16 C2.0980905 15.78943471 2.0980905 15.78943471 -1.8125 12.4375 C-2.534375 11.633125 -3.25625 10.82875 -4 10 C-2.68 6.7 -1.36 3.4 0 0 Z " fill="#F5F5F5" transform="translate(451,56)"/>
<path d="M0 0 C2 2 2 2 2.4375 5.1875 C1.90512772 9.82674415 0.41567283 12.80360493 -3 16 C-5.67578125 17.19921875 -5.67578125 17.19921875 -8 18 C-8.53469802 16.27507022 -9.05219175 14.544802 -9.5625 12.8125 C-9.85253906 11.84957031 -10.14257812 10.88664062 -10.44140625 9.89453125 C-11.03659402 6.81037645 -11.01791412 4.96166972 -10 2 C-6.32653229 -0.44897847 -4.33643601 -0.31537716 0 0 Z " fill="#F7F7F7" transform="translate(670,272)"/>
<path d="M0 0 C0.66 0.33 1.32 0.66 2 1 C0.51092671 5.46721986 -1.53183254 9.74972788 -5 13 C-9.13394774 13.79777939 -11.00268144 13.67319003 -14.5 11.3125 C-16 9 -16 9 -16.125 6.5 C-13.04587414 -0.3425019 -6.64107723 -0.81021142 0 0 Z " fill="#F7F7F7" transform="translate(78,169)"/>
<path d="M0 0 C4.59371309 0.37653386 6.37743136 1.25910565 9.8125 4.3125 C11.39799973 6.88464197 12.66092974 9.52163561 13.8125 12.3125 C11.18688891 12.39324203 8.56374324 12.4528623 5.9375 12.5 C4.81794922 12.53770508 4.81794922 12.53770508 3.67578125 12.57617188 C1.5078125 12.60546875 1.5078125 12.60546875 -2.1875 12.3125 C-4.88211986 8.27057022 -4.41950889 6.1073504 -4.1875 1.3125 C-3.1875 0.3125 -3.1875 0.3125 0 0 Z " fill="#F9F9F9" transform="translate(332.1875,21.6875)"/>
<path d="M0 0 C4.29 0.66 8.58 1.32 13 2 C12.125 12.875 12.125 12.875 11 14 C9.37860563 14.12494616 7.75115878 14.17571624 6.125 14.1875 C5.24070312 14.20167969 4.35640625 14.21585938 3.4453125 14.23046875 C1 14 1 14 -2 12 C-1.34 8.04 -0.68 4.08 0 0 Z " fill="#F5F5F5" transform="translate(400,42)"/>
<path d="M0 0 C3.70831663 -0.02918874 7.41660342 -0.04686218 11.125 -0.0625 C12.17171875 -0.07087891 13.2184375 -0.07925781 14.296875 -0.08789062 C19.3090905 -0.10375207 24.07665912 -0.08177213 29 1 C29 2.65 29 4.3 29 6 C9.03189066 6.18451025 9.03189066 6.18451025 0 5 C0 3.35 0 1.7 0 0 Z " fill="#141414" transform="translate(638,346)"/>
<path d="M0 0 C0 1.32 0 2.64 0 4 C-5.93627248 6.39786933 -11.72646847 7.94917619 -18 9.1875 C-18.87011719 9.36474609 -19.74023438 9.54199219 -20.63671875 9.72460938 C-22.75663333 10.15558102 -24.87815687 10.57862591 -27 11 C-27.33 9.35 -27.66 7.7 -28 6 C-22.44992263 4.05260443 -16.85366221 2.32741331 -11.1875 0.75 C-9.92292969 0.39421875 -8.65835938 0.0384375 -7.35546875 -0.328125 C-4.31203982 -0.93751938 -2.83058391 -1.11226975 0 0 Z " fill="#101010" transform="translate(61,421)"/>
<path d="M0 0 C1.32 0.66 2.64 1.32 4 2 C2.5158627 5.48654476 0.53785948 7.64191072 -2.1875 10.25 C-6.35843766 14.31970131 -10.23391663 18.55577944 -14 23 C-15.32 22.34 -16.64 21.68 -18 21 C-18 18 -18 18 -16.34765625 16.00708008 C-15.21650391 14.89949341 -15.21650391 14.89949341 -14.0625 13.76953125 C-13.25039062 12.96708984 -12.43828125 12.16464844 -11.6015625 11.33789062 C-10.74304688 10.50451172 -9.88453125 9.67113281 -9 8.8125 C-7.71222656 7.5450293 -7.71222656 7.5450293 -6.3984375 6.25195312 C-4.2721635 4.16111702 -2.13921536 2.07758017 0 0 Z " fill="#090909" transform="translate(141,568)"/>
<path d="M0 0 C6.30162703 0.59449312 6.30162703 0.59449312 8.9375 2.125 C10.60187386 5.06213035 10.24401904 7.70574299 10 11 C9 12 9 12 6.125 12.3125 C3 12 3 12 1.125 10.5 C-0.50517055 6.87739877 -0.19772667 3.95453342 0 0 Z " fill="#F1F1F1" transform="translate(649,384)"/>
<path d="M0 0 C6.75 1.625 6.75 1.625 9 5 C9.36145422 7.89163378 9.38440503 9.3930447 7.8125 11.875 C6 13 6 13 3.4375 12.8125 C1 12 1 12 -1 10 C-1.20146402 6.306493 -1.17353189 3.52059568 0 0 Z " fill="#F3F3F3" transform="translate(637,444)"/>
<path d="M0 0 C3.1875 0.4375 3.1875 0.4375 5.5625 3.25 C7.1875 6.4375 7.1875 6.4375 7.1875 9.4375 C4.1042365 10.97913175 1.57871901 10.73497535 -1.8125 10.4375 C-3.8125 8.75 -3.8125 8.75 -4.8125 6.4375 C-4.27553094 0.66508259 -4.27553094 0.66508259 0 0 Z " fill="#F8F8F8" transform="translate(46.8125,441.5625)"/>
<path d="M0 0 C2.375 1.75 2.375 1.75 4 4 C4 5.32 4 6.64 4 8 C-0.62 8 -5.24 8 -10 8 C-9 3 -9 3 -7.8125 1.1875 C-5.06937448 -0.60972017 -3.20418874 -0.45774125 0 0 Z " fill="#EFEFEF" transform="translate(341,651)"/>
<path d="M0 0 C2.54866746 1.25610894 4.89877269 2.52839694 7.3125 4 C7.95767578 4.3815625 8.60285156 4.763125 9.26757812 5.15625 C10.85083481 6.09447618 12.42623205 7.04594311 14 8 C13.67 9.32 13.34 10.64 13 12 C13 11.34 13 10.68 13 10 C12.113125 9.731875 11.22625 9.46375 10.3125 9.1875 C7 8 7 8 4.4375 6.3125 C2.05584581 4.75081348 2.05584581 4.75081348 -0.75 5.1875 C-3.17221913 5.76996879 -3.17221913 5.76996879 -4 8 C-5.98 7.34 -7.96 6.68 -10 6 C-8.28294612 0.84883836 -5.2650121 -0.62070184 0 0 Z " fill="#141414" transform="translate(151,76)"/>
<path d="M0 0 C1.9375 1.125 1.9375 1.125 3 3 C3.1875 6.1875 3.1875 6.1875 3 9 C0 10 0 10 -2.48046875 9.00390625 C-3.37378906 8.52824219 -4.26710937 8.05257812 -5.1875 7.5625 C-6.08855469 7.08941406 -6.98960937 6.61632812 -7.91796875 6.12890625 C-8.60503906 5.75636719 -9.29210937 5.38382813 -10 5 C-10 4.01 -10 3.02 -10 2 C-6.30513897 -0.46324069 -4.36706908 -0.38991688 0 0 Z " fill="#F4F4F4" transform="translate(217,623)"/>
<path d="M0 0 C2.33649506 1.43259551 4.28401232 2.78074346 6.375 4.5 C7.19291016 5.14388672 7.19291016 5.14388672 8.02734375 5.80078125 C9.36182394 6.85431825 10.68238739 7.92544214 12 9 C11.67 9.99 11.34 10.98 11 12 C10.67 11.34 10.34 10.68 10 10 C8.68596724 9.29605388 7.3479743 8.63654342 6 8 C5.2575 7.443125 4.515 6.88625 3.75 6.3125 C-0.19862478 4.42792908 -2.74249493 5.20622787 -7 6 C-7.99 4.68 -8.98 3.36 -10 2 C-6.54992318 -0.1231242 -4.01787256 -0.42496729 0 0 Z " fill="#0F0F0F" transform="translate(209,46)"/>
<path d="M0 0 C0.309375 0.639375 0.61875 1.27875 0.9375 1.9375 C1.8345163 3.93610821 1.8345163 3.93610821 3 5 C6.62059232 5.29356154 8.87703962 4.85064319 12 3 C11.62120265 5.19702465 11.09789619 6.83875922 9.9375 8.75 C6.68799037 10.84645783 3.8077764 10.30220448 0 10 C-2 8 -2 8 -2.125 4.375 C-2.08375 3.26125 -2.0425 2.1475 -2 1 C-1.34 0.67 -0.68 0.34 0 0 Z " fill="#0C0C0C" transform="translate(29,287)"/>
<path d="M0 0 C0.5775 0.680625 1.155 1.36125 1.75 2.0625 C2.4925 2.701875 3.235 3.34125 4 4 C6.39788436 3.78842197 7.85584361 3.07207819 10 2 C9.125 6.875 9.125 6.875 8 8 C2.26388889 8.27314815 2.26388889 8.27314815 0 8 C-0.66 7.34 -1.32 6.68 -2 6 C-1.44444444 1.44444444 -1.44444444 1.44444444 0 0 Z " fill="#0B0B0B" transform="translate(611,231)"/>
<path d="M0 0 C0.598125 0.226875 1.19625 0.45375 1.8125 0.6875 C1.9375 4.0625 1.9375 4.0625 1.8125 7.6875 C1.1525 8.3475 0.4925 9.0075 -0.1875 9.6875 C-2.3125 9.3125 -2.3125 9.3125 -4.1875 8.6875 C-4.875 5.875 -4.875 5.875 -5.1875 2.6875 C-3.62441875 0.13720955 -3.00012909 -0.42858987 0 0 Z " fill="#EFEFEF" transform="translate(471.1875,61.3125)"/>
<path d="M0 0 C1.7376195 2.60642925 3.15637444 5.14623584 4.5625 7.9375 C4.99691406 8.79214844 5.43132812 9.64679688 5.87890625 10.52734375 C6.86461005 12.70138732 7.5190348 14.67083147 8 17 C7.01 17 6.02 17 5 17 C3.96198445 15.11351956 2.94516833 13.21536344 1.9375 11.3125 C1.36902344 10.25675781 0.80054688 9.20101562 0.21484375 8.11328125 C-1.08735791 4.77612779 -1.08754852 3.34964944 0 0 Z " fill="#111111" transform="translate(390,59)"/>
<path d="M0 0 C2.2477975 2.05233685 3.0022242 3.00667261 4 6 C0.25 9 0.25 9 -2 9 C-4 6 -4 6 -3.8125 3.9375 C-3 2 -3 2 0 0 Z " fill="#171717" transform="translate(422,27)"/>
<path d="M0 0 C1.67542976 0.28604898 3.34385343 0.61781233 5 1 C5 2.65 5 4.3 5 6 C2.625 6.625 2.625 6.625 0 7 C-0.66 6.34 -1.32 5.68 -2 5 C-1.46428571 1.46428571 -1.46428571 1.46428571 0 0 Z " fill="#1C1C1C" transform="translate(67,417)"/>
<path d="M0 0 C5.75 0.875 5.75 0.875 8 2 C7.34 3.32 6.68 4.64 6 6 C3.625 6.125 3.625 6.125 1 6 C0.34 5.34 -0.32 4.68 -1 4 C-0.625 1.875 -0.625 1.875 0 0 Z " fill="#F3F3F3" transform="translate(31,287)"/>
<path d="M0 0 C2.625 0.375 2.625 0.375 5 1 C4.67 2.65 4.34 4.3 4 6 C2.35 6 0.7 6 -1 6 C-1.625 4.125 -1.625 4.125 -2 2 C-1.34 1.34 -0.68 0.68 0 0 Z " fill="#0E0E0E" transform="translate(148,560)"/>
<path d="M0 0 C1.67542976 0.28604898 3.34385343 0.61781233 5 1 C5.33 1.99 5.66 2.98 6 4 C5.67 4.66 5.34 5.32 5 6 C3.35 6 1.7 6 0 6 C-0.38218767 4.34385343 -0.71395102 2.67542976 -1 1 C-0.67 0.67 -0.34 0.34 0 0 Z " fill="#0D0D0D" transform="translate(628,345)"/>
<path d="M0 0 C2.29633824 3.44450737 2.54016485 5.93812283 3 10 C2.01 10 1.02 10 0 10 C-0.66 7.36 -1.32 4.72 -2 2 C-1.34 2 -0.68 2 0 2 C0 1.34 0 0.68 0 0 Z " fill="#292929" transform="translate(439,77)"/>
<path d="M0 0 C2.95409701 1.37154504 5.44008376 2.98863724 8 5 C7.67 5.99 7.34 6.98 7 8 C6.67 7.34 6.34 6.68 6 6 C5.38125 5.690625 4.7625 5.38125 4.125 5.0625 C1.94189465 3.97094732 0.62989532 2.79288485 -1 1 C-0.67 0.67 -0.34 0.34 0 0 Z " fill="#202020" transform="translate(213,50)"/>
<path d="M0 0 C0.94875 0.350625 1.8975 0.70125 2.875 1.0625 C3.205 2.7125 3.535 4.3625 3.875 6.0625 C3.545 5.4025 3.215 4.7425 2.875 4.0625 C0.87928677 3.38310826 -1.12094773 2.71688441 -3.125 2.0625 C-3.785 1.4025 -4.445 0.7425 -5.125 0.0625 C-3.125 -0.9375 -3.125 -0.9375 0 0 Z " fill="#242424" transform="translate(161.125,81.9375)"/>
<path d="M0 0 C1.99097846 2.98646769 2.94124926 5.59687262 4 9 C3.01 9 2.02 9 1 9 C-0.61949011 6.42786866 -1.04408751 5.32330841 -0.625 2.25 C-0.41875 1.5075 -0.2125 0.765 0 0 Z " fill="#1E1E1E" transform="translate(390,59)"/>
<path d="M0 0 C0 0.99 0 1.98 0 3 C-2.31 3.33 -4.62 3.66 -7 4 C-6.67 3.01 -6.34 2.02 -6 1 C-3 0 -3 0 0 0 Z " fill="#131313" transform="translate(90,233)"/>
</svg>
